<svg xmlns="http://www.w3.org/2000/svg" xmlns:xlink="http://www.w3.org/1999/xlink" xmlns:lucid="lucid" width="1629.21" height="1981.13"><g transform="translate(0 0)" lucid:page-tab-id="~QxNv6wkKDEo"><path d="M0 0h1629.2v1981.13H0z" fill="#fff"/><path d="M229.2 975.28c0 22.1-17.9 40-40 40-22.08 0-40-17.9-40-40s17.92-40 40-40c22.1 0 40 17.9 40 40z" stroke="#666" fill="#fff"/><use xlink:href="#a" transform="matrix(1,0,0,1,149.20777821728865,935.281866838708) translate(30.120234375 52.4609375)"/><path d="M389.2 334.52c0 22.1-17.9 40-40 40-22.08 0-40-17.9-40-40s17.92-40 40-40c22.1 0 40 17.9 40 40z" stroke="#666" fill="#fff"/><use xlink:href="#b" transform="matrix(1,0,0,1,309.20777821728865,294.5208766939253) translate(30.120234375 52.4609375)"/><path d="M389.2 494.52c0 22.1-17.9 40-40 40-22.08 0-40-17.9-40-40s17.92-40 40-40c22.1 0 40 17.9 40 40z" stroke="#666" fill="#fff"/><use xlink:href="#c" transform="matrix(1,0,0,1,309.20777821728865,454.5208766939253) translate(30.120234375 52.4609375)"/><path d="M389.2 814.52c0 22.1-17.9 40-40 40-22.08 0-40-17.9-40-40s17.92-40 40-40c22.1 0 40 17.9 40 40z" stroke="#666" fill="#fff"/><use xlink:href="#d" transform="matrix(1,0,0,1,309.20777821728865,774.5208766939252) translate(20.73546875 52.4609375)"/><path d="M389.2 974.52c0 22.1-17.9 40-40 40-22.08 0-40-17.9-40-40s17.92-40 40-40c22.1 0 40 17.9 40 40z" stroke="#666" fill="#fff"/><use xlink:href="#e" transform="matrix(1,0,0,1,309.20777821728865,934.5208766939253) translate(20.73546875 52.4609375)"/><path d="M389.2 1294.52c0 22.1-17.9 40-40 40-22.08 0-40-17.9-40-40s17.92-40 40-40c22.1 0 40 17.9 40 40z" stroke="#666" fill="#fff"/><use xlink:href="#f" transform="matrix(1,0,0,1,309.20777821728865,1254.5208766939254) translate(20.73546875 52.4609375)"/><path d="M389.2 1934.52c0 22.1-17.9 40-40 40-22.08 0-40-17.9-40-40s17.92-40 40-40c22.1 0 40 17.9 40 40z" stroke="#666" fill="#fff"/><use xlink:href="#g" transform="matrix(1,0,0,1,309.20777821728865,1894.5208766939254) translate(20.73546875 52.4609375)"/><path d="M389.2 1134.52c0 22.1-17.9 40-40 40-22.08 0-40-17.9-40-40s17.92-40 40-40c22.1 0 40 17.9 40 40z" stroke="#666" fill="#fff"/><use xlink:href="#h" transform="matrix(1,0,0,1,309.20777821728865,1094.5208766939254) translate(20.73546875 52.4609375)"/><path d="M549.2 974.52c0 22.1-17.9 40-40 40-22.08 0-40-17.9-40-40s17.92-40 40-40c22.1 0 40 17.9 40 40z" stroke="#666" fill="#fff"/><use xlink:href="#i" transform="matrix(1,0,0,1,469.20777821728865,934.5208766939253) translate(20.73546875 52.4609375)"/><path d="M709.2 975.28c0 22.1-17.9 40-40 40-22.08 0-40-17.9-40-40s17.92-40 40-40c22.1 0 40 17.9 40 40z" stroke="#666" fill="#fff"/><use xlink:href="#j" transform="matrix(1,0,0,1,629.2077782172887,935.281866838708) translate(20.73546875 52.4609375)"/><path d="M869.2 974.52c0 22.1-17.9 40-40 40-22.08 0-40-17.9-40-40s17.92-40 40-40c22.1 0 40 17.9 40 40z" stroke="#666" fill="#fff"/><use xlink:href="#k" transform="matrix(1,0,0,1,789.2077782172887,934.5208766939253) translate(20.73546875 52.4609375)"/><path d="M1029.2 974.52c0 22.1-17.9 40-40 40-22.08 0-40-17.9-40-40s17.92-40 40-40c22.1 0 40 17.9 40 40z" stroke="#666" fill="#fff"/><use xlink:href="#l" transform="matrix(1,0,0,1,949.2077782172886,934.5208766939253) translate(20.73546875 52.4609375)"/><path d="M549.2 1134.52c0 22.1-17.9 40-40 40-22.08 0-40-17.9-40-40s17.92-40 40-40c22.1 0 40 17.9 40 40z" stroke="#666" fill="#fff"/><use xlink:href="#m" transform="matrix(1,0,0,1,469.20777821728865,1094.5208766939254) translate(20.73546875 52.4609375)"/><path d="M709.2 1134.52c0 22.1-17.9 40-40 40-22.08 0-40-17.9-40-40s17.92-40 40-40c22.1 0 40 17.9 40 40z" stroke="#666" fill="#fff"/><use xlink:href="#n" transform="matrix(1,0,0,1,629.2077782172887,1094.5208766939254) translate(20.73546875 52.4609375)"/><path d="M268.84 975.78H229.7v-1h39.14zm23.28 0h-12.1v-1h12.1z" fill="#666"/><path d="M229.7 975.78h-.52l.03-.5v-.5h.5zM307.12 975.28l-14.27 4.64v-9.27z" fill="#666"/><path d="M308.73 975.28l-16.38 5.33v-10.64zm-15.38 3.95l12.15-3.95-12.15-3.95z" fill="#666"/><use xlink:href="#o" transform="matrix(1,0,0,1,268.8389517327022,965.9485335053746) translate(0 12.444444444444446)"/><path d="M262.06 924.8l-3.92 13.08-2.76 7.97-2.2 5.58-1.85 4.16-1.6 3.22-1.42 2.58-1.26 2.1-1.15 1.74-1.07 1.47-1 1.25-.9 1.06-.86.93-.82.8-.77.7-.75.6-.7.55-.7.48-.66.42-.65.37-.63.34-.63.28-.62.26-.6.22-.6.2-.6.16-.6.14-.6.12-.6.1-.6.05-.62.04h-.6l-.03-1h.6l.57-.04.56-.06.56-.08.55-.1.55-.15.56-.15.56-.18.57-.2.56-.25.58-.28.6-.32.6-.36.64-.4.65-.45.68-.5.72-.6.75-.67.78-.77.83-.9.9-1.02.95-1.2 1.04-1.43 1.13-1.7 1.25-2.07 1.4-2.54 1.57-3.2 1.83-4.12 2.2-5.54 2.74-7.93 3.9-13.03 14.94-56.57h1.03zm33.08-102.05l-.75.95-1.05 1.43-1.13 1.7-1.25 2.07-1.4 2.54-1.58 3.2-1.84 4.12-2.18 5.54-1.74 5h-1.06l1.86-5.35 2.2-5.58 1.85-4.16 1.6-3.22 1.4-2.58 1.27-2.1 1.16-1.74 1.06-1.46.76-.97z" fill="#666"/><path d="M229.94 975.73l-.8.4.07-.85v-.3l.28-.14zM297.18 826.4l-4.58-8.08 14.7-3z" fill="#666"/><path d="M297.08 827.23l-5.25-9.26 16.88-3.45zm-3.7-8.55l3.9 6.86 8.6-9.42z" fill="#666"/><use xlink:href="#p" transform="matrix(1,0,0,1,274.69691206168534,849.301299911698) translate(0 12.444444444444446)"/><path d="M258.97 855.5L252.4 909l-3.85 23.18-2.7 12.78-2 7.9-1.58 5.26-1.28 3.7-1.08 2.7-.9 2.04-.8 1.58-.67 1.25-.6 1-.55.8-.5.7-.44.56-.42.48-.38.4-.36.36-.34.3-.3.27-.32.23-.3.2-.26.17-.27.16-.25.13-.25.12-.24.1-.24.1-.23.07-.24.06-.23.06-.23.05-.22.04-.22.02-.23.02h-.2l-.03-1h.37l.2-.03.17-.03.18-.04.2-.04.18-.05.2-.08.2-.07.2-.1.2-.1.23-.1.23-.13.24-.16.26-.17.26-.22.3-.23.3-.28.32-.32.36-.38.4-.45.4-.54.48-.64.52-.8.58-.95.67-1.22.76-1.54.9-2 1.05-2.67 1.27-3.65 1.56-5.23 2-7.87 2.7-12.74 3.84-23.15 6.55-53.47 23.45-246.4h1zm40-348.72l-.6 1.55-1.27 3.66-1.57 5.2-2 7.87-2.68 12.74-3.86 23.14-2.8 29.37h-1l2.8-29.5 3.86-23.18 2.7-12.77 2-7.9 1.6-5.27 1.27-3.7.62-1.57z" fill="#666"/><path d="M230.08 975.62l-.96 1.06.1-1.4-.02-.18.14-.15zM302 509.65l-7.08-5.98 12.74-7.9z" fill="#666"/><path d="M302.2 510.47l-8.13-6.86 14.64-9.08zm-6.43-6.74l6.03 5.1 4.82-11.84z" fill="#666"/><use xlink:href="#q" transform="matrix(1,0,0,1,277.6245578047372,590.3118270886791) translate(0 12.444444444444446)"/><path d="M267.12 696.72l-13.8 181.75-5.18 42.17-3.22 19.35-2.25 10.68-1.67 6.57-1.3 4.34-1.05 3.02-.87 2.2-.73 1.64-.63 1.27-.55 1-.48.8-.44.65-.4.54-.35.45-.32.38-.3.32-.28.28-.27.24-.25.2-.24.18-.22.15-.22.14-.2.12-.2.1-.2.1-.2.07-.18.07-.18.06-.18.05-.18.04-.18.02-.17.03-.17.02H229.72l-.02-1h.4l.14-.03.13-.03.14-.02.15-.04.14-.05.14-.06.15-.06.15-.08.16-.1.18-.08.18-.12.2-.13.2-.16.22-.17.23-.2.26-.26.28-.3.3-.34.33-.4.36-.52.4-.6.47-.77.53-.96.6-1.23.73-1.6.85-2.17 1.04-3 1.3-4.3 1.66-6.52 2.24-10.64 3.2-19.3 5.2-42.13 13.78-181.72 18.2-254.46h1zM300 347.57l-.33.95-1.3 4.3-1.65 6.53-2.24 10.64-3.2 19.3-4.22 34.22h-1l4.22-34.36 3.22-19.35 2.24-10.68 1.68-6.57 1.3-4.34.34-.95z" fill="#666"/><path d="M230.1 975.58l-1 1.32.1-1.62v-.16l.1-.14zM303.27 350.15l-7.55-5.38 12.05-8.93z" fill="#666"/><path d="M303.54 350.95l-8.67-6.17 13.84-10.26zm-6.97-6.2l6.43 4.6 3.83-12.2z" fill="#666"/><use xlink:href="#r" transform="matrix(1,0,0,1,280.30207140829657,423.5193600601195) translate(0 12.444444444444446)"/><path d="M286 1110.13l1.84 4.15 1.6 3.2 1.4 2.57 1.25 2.08 1.13 1.7 1.05 1.45.83 1.06-.77.62-.85-1.08-1.07-1.47-1.15-1.74-1.28-2.1-1.42-2.6-1.6-3.26-1.87-4.2-1.87-4.73h1.08zM230.34 974.8l.62.03.6.07.62.1.6.1.6.14.6.17.6.2.62.24.62.26.62.3.64.32.65.38.67.43.7.48.7.55.76.62.78.7.82.8.87.93.92 1.07 1 1.25 1.05 1.47 1.17 1.74 1.27 2.1 1.43 2.6 1.6 3.26 1.87 4.2 2.22 5.62 2.8 8.06 4 13.36 16.15 60.76h-1.02l-16.1-60.48-3.98-13.33-2.78-8.04-2.2-5.58-1.85-4.16-1.6-3.2-1.4-2.57-1.25-2.08-1.14-1.7-1.04-1.45-.96-1.2-.9-1.05-.84-.9-.8-.77-.73-.67-.7-.6-.7-.5-.65-.47-.63-.4-.62-.36-.6-.3-.6-.3-.57-.23-.57-.22-.56-.18-.57-.16-.56-.12-.56-.1-.55-.1-.57-.05-.58-.04-.6-.02.02-1z" fill="#666"/><path d="M229.94 974.84l-.46.9-.3-.16.03-.3-.02-.83zM307.3 1133.73l-14.7-2.96 4.54-8.08z" fill="#666"/><path d="M308.7 1134.52l-16.88-3.4 5.22-9.28zm-15.33-4.1l12.52 2.5-8.66-9.4z" fill="#666"/><use xlink:href="#s" transform="matrix(1,0,0,1,274.0160642614098,1087.1047802120752) translate(0 12.444444444444446)"/><path d="M287.86 1254.17l2.6 10.16 2.02 6.76 1.65 4.76 1.38 3.5 1.2 2.65.78 1.6-.9.45-.8-1.62-1.2-2.7-1.4-3.53-1.65-4.8-2.04-6.8-2.62-10.2-1.5-7.18h1.02zM230.04 974.8h.32l.32.04.33.05.33.05.33.08.33.1.32.1.34.13.35.14.36.17.37.2.37.2.4.25.4.3.42.3.44.38.47.42.5.5.53.55.57.66.62.78.67.94.74 1.1.82 1.36.9 1.67 1.05 2.1 1.2 2.7 1.4 3.53 1.66 4.8 2.03 6.8 2.6 10.2 3.54 16.8 5.6 33.82 22.44 162.53h-1l-22.4-162.38-5.62-33.77-3.52-16.77-2.6-10.16-2.02-6.76-1.66-4.75-1.38-3.5-1.17-2.65-1.03-2.06-.9-1.64-.8-1.32-.7-1.07-.65-.88-.6-.75-.53-.63-.5-.53-.47-.45-.44-.4-.4-.34-.4-.28-.36-.26-.36-.23-.34-.2-.32-.16-.32-.15-.3-.13-.3-.13-.3-.1-.3-.07-.28-.07-.28-.05-.28-.04-.28-.03h-.3l-.28-.02.02-1z" fill="#666"/><path d="M230.03 974.9l-.64.76-.2-.16v-.22l-.03-1.1zM307.5 1293.43l-13.64-6.22 6.27-6.83z" fill="#666"/><path d="M308.7 1294.52l-15.67-7.14 7.2-7.85zm-14-7.48l11.62 5.3-6.3-11.12z" fill="#666"/><use xlink:href="#t" transform="matrix(1,0,0,1,280.0323596366323,1228.5525303848347) translate(0 12.444444444444446)"/><path d="M292.08 1860.6l4 32.68 2.5 14.96 1.7 8.12 1.08 4.2-.97.25-1.1-4.22-1.7-8.16-2.5-15-4.02-32.75-27.48-531.04h1zm-62.25-885.82h.13l.12.03.12.02.13.03.12.03.13.03.13.06.14.04.14.06.14.07.14.07.15.1.16.1.17.1.16.13.17.14.2.17.2.2.2.23.24.27.26.32.28.38.3.47.35.58.4.72.44.9.53 1.2.63 1.62.78 2.22.96 3.23 1.26 4.95 1.72 8.16 2.5 15 4 32.74 8.05 102.2 8.27 159.64h-1l-8.26-159.56-8.05-102.18-4-32.7-2.5-14.95-1.7-8.12-1.25-4.9-.96-3.2-.76-2.2-.6-1.55-.53-1.16-.43-.88-.37-.68-.33-.54-.28-.43-.26-.34-.22-.3-.2-.22-.2-.2-.17-.17-.15-.14-.15-.12-.13-.1-.13-.08-.1-.08-.12-.06-.1-.06-.1-.04-.1-.05-.1-.03-.1-.03-.08-.02-.08-.02-.08-.02h-.17l-.08-.02h-.1l.02-1z" fill="#666"/><path d="M230.14 975.02l-.86.52-.08-.13v-.12l-.06-1.9zM307.9 1933.1L296.86 1923l8.06-4.56z" fill="#666"/><path d="M308.7 1934.52L296 1922.9l9.27-5.26zm-11-11.44l9.4 8.62-2.54-12.5z" fill="#666"/><use xlink:href="#u" transform="matrix(1,0,0,1,258.43246658966336,1310.9641710295941) translate(0 12.444444444444446)"/><path d="M408.3 975.02h-18.6v-1h18.6zm43.8 0h-35.15v-1h35.14z" fill="#666"/><path d="M389.7 975.02h-.52l.03-.5v-.5h.5zM467.1 974.52l-14.28 4.64v-9.27z" fill="#666"/><path d="M468.7 974.52l-16.38 5.32V969.2zm-15.38 3.95l12.15-3.95-12.15-3.95z" fill="#666"/><use xlink:href="#p" transform="matrix(1,0,0,1,408.30473541690066,965.187543360592) translate(0 12.444444444444446)"/><path d="M575.72 975.02h-26v-1h26zm36.42 0h-24.32v-1h24.32zM549.7 975.02h-.52l.03-.5v-.5h.5zM627.14 974.52l-14.27 4.64v-9.27z" fill="#666"/><path d="M628.75 974.52l-16.38 5.32V969.2zm-15.38 3.95l12.15-3.95-12.15-3.95z" fill="#666"/><use xlink:href="#v" transform="matrix(1,0,0,1,575.7222373624088,965.187543360592) translate(0 12.444444444444446)"/><path d="M739.1 975.78h-29.4v-1h29.4zm33.02 0h-22.65v-1h22.65z" fill="#666"/><path d="M709.7 975.78h-.52l.03-.5v-.5h.5zM787.12 975.28l-14.27 4.64v-9.27z" fill="#666"/><path d="M788.73 975.28l-16.38 5.33v-10.64zm-15.38 3.95l12.15-3.95-12.15-3.95z" fill="#666"/><use xlink:href="#r" transform="matrix(1,0,0,1,739.0991594688535,965.9485335053747) translate(0 12.444444444444446)"/><path d="M912.26 975.02H869.7v-1h42.56zm19.83 0h-8.65v-1h8.64z" fill="#666"/><path d="M869.7 975.02h-.52l.03-.5v-.5h.5zM947.1 974.52l-14.28 4.64v-9.27z" fill="#666"/><path d="M948.7 974.52l-16.38 5.32V969.2zm-15.38 3.95l12.15-3.95-12.15-3.95z" fill="#666"/><use xlink:href="#o" transform="matrix(1,0,0,1,912.2566776033667,965.1875433605919) translate(0 12.444444444444446)"/><path d="M414.77 1135.02H389.7v-1h25.07zm37.32 0h-26.14v-1h26.13z" fill="#666"/><path d="M389.7 1135.02h-.52l.03-.5v-.5h.5zM467.1 1134.52l-14.28 4.64v-9.27z" fill="#666"/><path d="M468.7 1134.52l-16.38 5.32v-10.64zm-15.38 3.95l12.15-3.95-12.15-3.95z" fill="#666"/><use xlink:href="#w" transform="matrix(1,0,0,1,414.7687452291417,1125.1875433605924) translate(0 12.444444444444446)"/><path d="M584.9 1135.02h-35.2v-1h35.2zm27.2 0h-18.57v-1h18.56z" fill="#666"/><path d="M549.7 1135.02h-.52l.03-.5v-.5h.5zM627.1 1134.52l-14.28 4.64v-9.27z" fill="#666"/><path d="M628.7 1134.52l-16.38 5.32v-10.64zm-15.38 3.95l12.15-3.95-12.15-3.95z" fill="#666"/><use xlink:href="#p" transform="matrix(1,0,0,1,584.887383052371,1125.1875433605921) translate(0 12.444444444444446)"/><path d="M869.2 1134.52c0 22.1-17.9 40-40 40-22.08 0-40-17.9-40-40s17.92-40 40-40c22.1 0 40 17.9 40 40z" stroke="#666" fill="#fff"/><use xlink:href="#x" transform="matrix(1,0,0,1,789.2077782172887,1094.5208766939254) translate(20.73546875 52.4609375)"/><path d="M749.5 1135.02h-39.8v-1h39.8zm22.6 0h-13.13v-1h13.12z" fill="#666"/><path d="M709.7 1135.02h-.52l.03-.5v-.5h.5zM787.1 1134.52l-14.28 4.64v-9.27z" fill="#666"/><path d="M788.7 1134.52l-16.38 5.32v-10.64zm-15.38 3.95l12.15-3.95-12.15-3.95z" fill="#666"/><use xlink:href="#y" transform="matrix(1,0,0,1,749.5026218200416,1125.1875433605921) translate(0 12.444444444444446)"/><path d="M549.2 1294.52c0 22.1-17.9 40-40 40-22.08 0-40-17.9-40-40s17.92-40 40-40c22.1 0 40 17.9 40 40z" stroke="#666" fill="#fff"/><use xlink:href="#z" transform="matrix(1,0,0,1,469.20777821728865,1254.5208766939254) translate(20.73546875 52.4609375)"/><path d="M709.2 1294.52c0 22.1-17.9 40-40 40-22.08 0-40-17.9-40-40s17.92-40 40-40c22.1 0 40 17.9 40 40z" stroke="#666" fill="#fff"/><use xlink:href="#A" transform="matrix(1,0,0,1,629.2077782172887,1254.5208766939254) translate(20.73546875 52.4609375)"/><path d="M709.2 1454.52c0 22.1-17.9 40-40 40-22.08 0-40-17.9-40-40s17.92-40 40-40c22.1 0 40 17.9 40 40z" stroke="#666" fill="#fff"/><use xlink:href="#B" transform="matrix(1,0,0,1,629.2077782172887,1414.5208766939254) translate(20.73546875 52.4609375)"/><path d="M520.13 1385.05l2.1 4.43 2.25 4.32 2.43 4.2 2.6 4.1 2.76 3.96 2.9 3.84 3.08 3.7 3.2 3.58 3.38 3.43 3.5 3.3 3.64 3.15 3.78 3 3.9 2.82 4.02 2.68 4.15 2.5 4.28 2.35 4.37 2.18 4.5 2 4.58 1.8 4.7 1.65 4.8 1.45 4.9 1.26 5.02 1.06 5.1.86 2.15.28-.13 1-2.17-.3-5.14-.86-5.05-1.07-4.93-1.26-4.84-1.46-4.74-1.65-4.65-1.83-4.52-2.02-4.42-2.2-4.3-2.35-4.17-2.54-4.06-2.7-3.94-2.87-3.8-3-3.68-3.18-3.53-3.32-3.4-3.47-3.24-3.6-3.1-3.74-2.93-3.87-2.78-4-2.62-4.12-2.45-4.25-2.28-4.35-2.1-4.47-.4-1h1.07zm-10.3-44.57l.33 5.36.55 5.25.77 5.15.97 5.05 1.05 4.5h-1.04l-1-4.3-.97-5.1-.78-5.18-.56-5.3-.34-5.4-.1-5.5h1z" fill="#666"/><path d="M509.2 1334.52l.48-.02.03.5-1 .05-.02-.56zM627.1 1454.4l-14.55 3.7.6-9.25z" fill="#666"/><path d="M628.7 1454.52l-16.7 4.24.7-10.63zm-15.6 2.93l12.38-3.14-11.86-4.73z" fill="#666"/><use xlink:href="#y" transform="matrix(1,0,0,1,511.0041115000234,1365.803775122146) translate(0 12.444444444444446)"/><path d="M584.02 1295.02h-34.3v-1H584zm28.07 0h-17.7v-1h17.7zM549.7 1295.02h-.52l.03-.5v-.5h.5zM627.1 1294.52l-14.28 4.64v-9.27z" fill="#666"/><path d="M628.7 1294.52l-16.38 5.32v-10.64zm-15.38 3.95l12.15-3.95-12.15-3.95z" fill="#666"/><use xlink:href="#u" transform="matrix(1,0,0,1,584.0231855215068,1285.1875433605921) translate(0 12.444444444444446)"/><path d="M424.9 1295.02h-35.2v-1h35.2zm27.2 0h-18.57v-1h18.56z" fill="#666"/><path d="M389.7 1295.02h-.52l.03-.5v-.5h.5zM467.1 1294.52l-14.28 4.64v-9.27z" fill="#666"/><path d="M468.7 1294.52l-16.38 5.32v-10.64zm-15.38 3.95l12.15-3.95-12.15-3.95z" fill="#666"/><use xlink:href="#p" transform="matrix(1,0,0,1,424.8873830523709,1285.1875433605921) translate(0 12.444444444444446)"/><path d="M549.2 1614.52c0 22.1-17.9 40-40 40-22.08 0-40-17.9-40-40s17.92-40 40-40c22.1 0 40 17.9 40 40z" stroke="#666" fill="#fff"/><use xlink:href="#C" transform="matrix(1,0,0,1,469.20777821728865,1574.5208766939254) translate(20.73546875 52.4609375)"/><path d="M549.2 1774.52c0 22.1-17.9 40-40 40-22.08 0-40-17.9-40-40s17.92-40 40-40c22.1 0 40 17.9 40 40z" stroke="#666" fill="#fff"/><use xlink:href="#D" transform="matrix(1,0,0,1,469.20777821728865,1734.5208766939254) translate(20.73546875 52.4609375)"/><path d="M549.2 1934.52c0 22.1-17.9 40-40 40-22.08 0-40-17.9-40-40s17.92-40 40-40c22.1 0 40 17.9 40 40z" stroke="#666" fill="#fff"/><use xlink:href="#E" transform="matrix(1,0,0,1,469.20777821728865,1894.5208766939254) translate(20.73546875 52.4609375)"/><path d="M377.16 1556.43l2.8 5.33 2.76 4.82 2.77 4.36 2.76 4 2.77 3.63 2.77 3.36 2.8 3.1 2.8 2.86 2.83 2.66 2.87 2.47 2.9 2.3 2.97 2.16 3.03 2 3.1 1.87 3.17 1.75 3.27 1.62 3.38 1.5 3.5 1.4 3.67 1.27 3.8 1.16 4 1.03 4.23.9 4.46.74 1.6.2-.13 1-1.62-.2-4.5-.77-4.27-.9-4.04-1.04-3.86-1.17-3.7-1.28-3.54-1.4-3.42-1.53-3.32-1.64-3.2-1.76-3.14-1.9-3.06-2.03-3-2.16-2.94-2.34-2.9-2.5-2.86-2.7-2.84-2.9-2.8-3.12-2.82-3.4-2.8-3.67-2.78-4-2.8-4.4-2.8-4.85-2.8-5.38-2.8-6-.16-.34h1.1zm-26.35-136.47l1.94 31.53 2.34 22.47 2.57 17.48 2.7 14.18 2.77 11.83 2.8 10.06 1.4 4.34h-1.04l-1.32-4.05-2.8-10.1-2.8-11.86-2.7-14.23-2.57-17.5-2.35-22.53-1.94-31.57-1.1-84.97h1zM349.2 1334.52l.5-.02v.52h-1v-.53zM467.1 1614.42l-14.54 3.7.6-9.26z" fill="#666"/><path d="M468.7 1614.52l-16.7 4.25.7-10.63zm-15.6 2.94l12.38-3.15-11.87-4.72z" fill="#666"/><use xlink:href="#F" transform="matrix(1,0,0,1,364.00690942522766,1531.861976396263) translate(0 12.444444444444446)"/><path d="M370.6 1726.9l2.74 3.95 2.8 3.67 2.82 3.42 2.87 3.2 2.94 3 3 2.8 3.06 2.65 3.15 2.5 3.25 2.35 3.35 2.23 3.48 2.1 3.62 2 3.77 1.86 3.95 1.76 4.16 1.65 4.38 1.52 4.66 1.4 4.95 1.28 5.3 1.12 5.7.97 6.17.77 1.44.13-.1 1-1.45-.12-6.2-.77-5.74-.97-5.34-1.14-5-1.28-4.68-1.42-4.43-1.54-4.2-1.66-3.98-1.77-3.8-1.9-3.66-2-3.5-2.13-3.4-2.25-3.28-2.4-3.2-2.5-3.1-2.7-3-2.83-2.98-3.02-2.9-3.23-2.85-3.46-2.82-3.7-2.77-4-1.55-2.44h.42v-1.23zm-20.9-391.86l-1.04 44.92-9.37 192.8.58 29.56 1.35 21.84 1.8 17.23 2.07 14.1 2.26 11.87 2.38 10.16 2.46 8.84 2.53 7.78 2.56 6.9 2.2 5.28h-1.08l-2.06-4.9-2.58-6.95-2.54-7.82-2.47-8.88-2.4-10.2-2.25-11.9-2.08-14.17-1.8-17.26-1.36-21.88-.6-29.63 9.4-192.8 1.03-44.9zM349.2 1334.52l.52-.02v.54l-1-.02v-.53zM467.1 1774.44l-14.48 3.96.44-9.26z" fill="#666"/><path d="M468.7 1774.52l-16.6 4.54.5-10.63zm-15.55 3.2l12.33-3.35-11.95-4.52z" fill="#666"/><use xlink:href="#u" transform="matrix(1,0,0,1,358.2465808958402,1706.3312272585913) translate(0 12.444444444444446)"/><path d="M423.93 1929.26l6.6 1.4 7.16 1.2 7.8 1 6.65.55-.1 1-6.65-.55-7.86-1-7.2-1.2-6.64-1.42-1.06-.27v-1.03zm-61.4-34.18l3.33 3.4 3.4 3.2 3.53 3.04 3.63 2.88 3.78 2.74 3.93 2.6 4.1 2.5 4.27 2.34 4.5 2.23 4.74 2.12 5.03 2 4.68 1.62v1.06l-5.03-1.75-5.06-2-4.78-2.13-4.54-2.25-4.32-2.38-4.13-2.5-3.97-2.64-3.8-2.76-3.67-2.9-3.56-3.08-3.44-3.24-3.35-3.42-2.2-2.46v-1.5zm-12.82-560.04l-.77 35.1-3.4 52.57-27.04 274.55-.75 33.2.5 24.85 1.23 19.75 1.7 16.26 2 13.7 2.25 11.8 2.4 10.25 2.53 9.06 2.62 8.07 2.7 7.25 2.75 6.57 2.8 5.97 2.88 5.5 2.93 5.06 1.37 2.14v1.87l-2.22-3.5-2.94-5.1-2.9-5.52-2.82-6.03-2.78-6.6-2.7-7.3-2.64-8.1-2.53-9.1-2.4-10.3-2.26-11.82-2.02-13.75-1.7-16.3-1.23-19.78-.5-24.9.74-33.26 27.03-274.57 3.4-52.53.78-35.08zM349.2 1334.52l.52-.02v.54l-1-.02v-.53zM467.1 1934.46l-14.44 4.1.34-9.26z" fill="#666"/><path d="M468.7 1934.52l-16.56 4.72.4-10.64zm-15.5 3.38l12.27-3.5-12-4.4z" fill="#666"/><use xlink:href="#G" transform="matrix(1,0,0,1,348.39614503525,1876.3259515935813) translate(0 12.444444444444446)"/><path d="M709.2 1934.52c0 22.1-17.9 40-40 40-22.08 0-40-17.9-40-40s17.92-40 40-40c22.1 0 40 17.9 40 40z" stroke="#666" fill="#fff"/><use xlink:href="#H" transform="matrix(1,0,0,1,629.2077782172887,1894.5208766939254) translate(20.73546875 52.4609375)"/><path d="M573.27 1935.02H549.7v-1h23.57zm38.82 0h-24.73v-1h24.72z" fill="#666"/><path d="M549.7 1935.02h-.52l.03-.5v-.5h.5zM627.1 1934.52l-14.28 4.64v-9.27z" fill="#666"/><path d="M628.7 1934.52l-16.38 5.32v-10.64zm-15.38 3.95l12.15-3.95-12.15-3.95z" fill="#666"/><use xlink:href="#u" transform="matrix(1,0,0,1,573.2698486774449,1925.1875433605924) translate(0 12.444444444444446)"/><path d="M709.2 1774.52c0 22.1-17.9 40-40 40-22.08 0-40-17.9-40-40s17.92-40 40-40c22.1 0 40 17.9 40 40z" stroke="#666" fill="#fff"/><use xlink:href="#I" transform="matrix(1,0,0,1,629.2077782172887,1734.5208766939254) translate(20.73546875 52.4609375)"/><path d="M564.3 1775.02h-14.6v-1h14.6zm47.8 0h-30.53v-1h30.52z" fill="#666"/><path d="M549.7 1775.02h-.52l.03-.5v-.5h.5zM627.1 1774.52l-14.28 4.64v-9.27z" fill="#666"/><path d="M628.7 1774.52l-16.38 5.32v-10.64zm-15.38 3.95l12.15-3.95-12.15-3.95z" fill="#666"/><use xlink:href="#J" transform="matrix(1,0,0,1,564.285414860941,1765.1875433605924) translate(0 12.444444444444446)"/><path d="M709.2 1614.52c0 22.1-17.9 40-40 40-22.08 0-40-17.9-40-40s17.92-40 40-40c22.1 0 40 17.9 40 40z" stroke="#666" fill="#fff"/><use xlink:href="#K" transform="matrix(1,0,0,1,629.2077782172887,1574.5208766939254) translate(20.73546875 52.4609375)"/><path d="M572.62 1615.02h-22.9v-1h22.9zm39.47 0h-30.02v-1h30zM549.7 1615.02h-.52l.03-.5v-.5h.5zM627.1 1614.52l-14.28 4.64v-9.27z" fill="#666"/><path d="M628.7 1614.52l-16.38 5.32v-10.64zm-15.38 3.95l12.15-3.95-12.15-3.95z" fill="#666"/><use xlink:href="#y" transform="matrix(1,0,0,1,572.618023642539,1605.1875433605924) translate(0 12.444444444444446)"/><path d="M1269.2 1134.52c0 22.1-17.9 40-40 40-22.08 0-40-17.9-40-40s17.92-40 40-40c22.1 0 40 17.9 40 40z" stroke="#666" fill="#fff"/><use xlink:href="#L" transform="matrix(1,0,0,1,1189.2077782172887,1094.5208766939254) translate(20.73546875 52.4609375)"/><path d="M925.2 1135.02h-55.5v-1h55.5zm246.9 0H937.02v-1h235.06z" fill="#666"/><path d="M869.7 1135.02h-.52l.03-.5v-.5h.5zM1187.1 1134.52l-14.28 4.64v-9.27z" fill="#666"/><path d="M1188.7 1134.52l-16.38 5.32v-10.64zm-15.38 3.95l12.15-3.95-12.15-3.95z" fill="#666"/><use xlink:href="#M" transform="matrix(1,0,0,1,925.207590367914,1123.3208766939256) translate(0 14.933333333333335)"/><path d="M1080.47 1003.2l3.5 4.82 4.02 6.07 4.92 8.16 7.15 13.08 26.3 50.95 4.9 8.12 4 6.03 3.47 4.78 3.1 3.93 2.86 3.3 2.66 2.84 2.5 2.45 2.4 2.15 2.28 1.9 2.2 1.67 2.16 1.5 2.1 1.33 2.07 1.2 2.05 1.07 2.02.95 2.03.85 2.03.76 1.3.42-.3.95-1.33-.43-2.07-.77-2.06-.87-2.07-.97-2.08-1.1-2.12-1.2-2.13-1.36-2.2-1.52-2.23-1.7-2.32-1.92-2.42-2.18-2.53-2.5-2.7-2.85-2.87-3.34-3.14-3.97-3.5-4.8-4-6.08-4.95-8.17-26.3-50.97-7.15-13.05-4.9-8.13-4-6.03-3.48-4.78-.64-.82v-1.6zm-48.3-29.13l2.36.15 2.3.24 2.22.33 2.18.4 2.13.5 2.1.6 2.1.67 2.05.77 2.08.87 2.07.98 2.08 1.1 2.1 1.2 2.14 1.36 2.18 1.52 2.25 1.7 2.32 1.93.4.34v1.34l-1.05-.94-2.3-1.9-2.2-1.67-2.15-1.5-2.1-1.33-2.08-1.2-2.04-1.06-2.03-.96-2.02-.85-2.03-.76-2.04-.65-2.07-.57-2.08-.5-2.14-.4-2.18-.33-2.25-.23-2.33-.15-2.42-.05.02-1z" fill="#666"/><path d="M1029.78 974.03l-.14 1-.46-.08.03-.43v-.58zM1187.1 1134.28l-14.8 2.43 1.4-9.16z" fill="#666"/><path d="M1188.7 1134.52l-17 2.8 1.6-10.53zm-15.8 1.58l12.6-2.07-11.4-5.73z" fill="#666"/><use xlink:href="#M" transform="matrix(1,0,0,1,1067.2076447671307,984.0156485558975) translate(0 14.933333333333335)"/><path d="M765.78 1291.74l-15.8 1.65-19.02 1.18-21.23.44-.02-1 21.22-.43 18.97-1.2 15.88-1.67zm406.32-156.38l-4.6.1-18.97 1.18-17.2 1.8-15.83 2.34-14.73 2.8-13.9 3.26-13.28 3.7-12.9 4.2-12.73 4.73-12.84 5.4-13.35 6.3-14.54 7.6-17.36 10.05-49.8 32.4-31.03 19.86-17.4 10.07-14.57 7.63-13.4 6.3-12.87 5.42-12.76 4.75-12.93 4.2-13.3 3.72-13.94 3.26-14.78 2.82-5.47.8v-1l5.32-.8 14.73-2.8 13.9-3.25 13.27-3.7 12.9-4.2 12.72-4.73 12.84-5.4 13.36-6.3 14.53-7.6 17.36-10.05 31-19.85 49.83-32.4 17.4-10.08 14.58-7.63 13.38-6.3 12.9-5.43 12.75-4.75 12.93-4.2 13.33-3.73 13.93-3.26 14.77-2.8 15.86-2.34 17.25-1.8 19-1.2 4.63-.1zM709.73 1295.02h-.55l.03-.5v-.5h.5zM1187.1 1134.55l-14.18 4.93-.2-9.27z" fill="#666"/><path d="M1188.7 1134.52l-16.26 5.66-.22-10.64zm-15.3 4.26l12.07-4.2-12.22-3.7z" fill="#666"/><use xlink:href="#M" transform="matrix(1,0,0,1,765.7847396895146,1279.2215269535232) translate(0 14.933333333333335)"/><path d="M761.84 1449.4l-2.52.6-9.05 1.72-9.42 1.4-9.84 1.02-10.34.65-10.93.22-.03-1 10.92-.23 10.3-.65 9.8-1.03 9.38-1.38 9-1.72 2.74-.64zm410.3-313.8l-4.65.3-9.8 1.02-9.38 1.4-9.02 1.7-8.7 2.05-8.5 2.36-8.28 2.7-8.15 3.03-8.06 3.4-8 3.76-8.04 4.2-8.1 4.7-8.25 5.22-8.44 5.87-8.76 6.67-9.2 7.62-9.85 8.86-10.8 10.6-12.37 13.18-15.35 17.82-55.9 72.8-25.77 32.75-15.38 17.87-12.4 13.2-10.83 10.64-9.88 8.9-9.24 7.66-8.8 6.68-8.48 5.9-8.27 5.25-8.14 4.7-8.07 4.2-8.06 3.8-8.1 3.4-8.18 3.06-8.33 2.7-2.94.82v-1.04l2.64-.73 8.3-2.7 8.14-3.02 8.06-3.4 8.03-3.76 8.03-4.2 8.1-4.68 8.24-5.23 8.45-5.87 8.76-6.65 9.22-7.63 9.85-8.87 10.8-10.6 12.37-13.18 15.35-17.82 25.74-32.72 55.92-72.83 15.37-17.86 12.4-13.2 10.83-10.64 9.88-8.9 9.24-7.65 8.8-6.68 8.48-5.9 8.27-5.25 8.14-4.7 8.08-4.22 8.06-3.8 8.1-3.4 8.2-3.05 8.32-2.7 8.52-2.38 8.76-2.05 9.05-1.73 9.4-1.4 9.85-1.02 4.67-.3zM709.73 1455.02l-.55.02.03-.52v-.48l.5-.02zM1187.1 1134.58l-14.1 5.13-.33-9.25z" fill="#666"/><path d="M1188.7 1134.52l-16.18 5.9-.37-10.64zm-15.23 4.5l12-4.4-12.28-3.5z" fill="#666"/><use xlink:href="#M" transform="matrix(1,0,0,1,761.8388755526198,1436.3051857235455) translate(0 14.933333333333335)"/><path d="M760.34 1608.9l-.13.03-7.47 1.75-7.77 1.48-8.13 1.2-8.53.9-9.02.56-9.55.2-.02-1 9.54-.2 8.97-.56 8.5-.9 8.1-1.18 7.72-1.48 7.44-1.74.38-.1zm411.9-471.6l-2.38.24-8.53 1.26-8.14 1.55-7.83 1.84-7.55 2.1-7.3 2.37-7.12 2.64-6.95 2.94-6.83 3.2-6.74 3.53-6.67 3.86-6.64 4.2-6.64 4.64-6.68 5.07-6.76 5.6-6.86 6.17-7.02 6.9-7.24 7.7-7.52 8.72-7.9 10-8.44 11.6-9.16 13.8-10.27 17-12.15 22.16-68.42 148.9-16.37 33.12-11.98 21.84-10.08 16.67-8.98 13.54-8.25 11.35-7.7 9.74-7.34 8.5-7.03 7.5-6.82 6.68-6.66 6-6.56 5.4-6.46 4.92-6.43 4.47-6.4 4.08-6.45 3.72-6.5 3.4-6.56 3.1-6.68 2.8-6.83 2.54-2.26.73v-1.05l1.93-.63 6.8-2.53 6.63-2.8 6.54-3.07 6.45-3.38 6.4-3.7 6.38-4.04 6.4-4.44 6.42-4.9 6.5-5.38 6.64-5.97 6.8-6.66 7-7.47 7.3-8.47 7.7-9.7 8.2-11.33 8.96-13.5 10.06-16.63 11.96-21.8 16.35-33.1 68.42-148.9 12.2-22.23 10.28-17 9.18-13.85 8.45-11.65 7.94-10.02 7.55-8.75 7.26-7.74 7.06-6.92 6.9-6.2 6.77-5.63 6.73-5.1 6.68-4.64 6.7-4.23 6.7-3.87 6.77-3.55 6.87-3.23 7-2.94 7.15-2.66 7.34-2.4 7.58-2.1 7.86-1.85 8.18-1.56 8.57-1.25 2.4-.25zM709.73 1615.02l-.55.02.03-.52v-.48l.5-.02zM1187.13 1135.6l-13.86 5.76-.73-9.24z" fill="#666"/><path d="M1188.74 1135.5l-15.9 6.58-.85-10.6zm-15.02 5.13l11.8-4.9-12.43-2.97z" fill="#666"/><use xlink:href="#M" transform="matrix(1,0,0,1,760.3448072777782,1595.5186852953739) translate(0 14.933333333333335)"/><path d="M751.35 1768.06l-4.95 1.6-5.02 1.42-5.06 1.18-5.12.98-5.2.77-5.3.56-5.42.34-5.55.12-.03-1 5.54-.1 5.38-.35 5.25-.56 5.16-.75 5.08-.97 5.03-1.17 4.98-1.4 4.98-1.6.27-.1zm420.86-631.98l-4.8.7-5.1.98-5 1.18-5 1.4-4.96 1.6-4.97 1.85-5 2.1-5.03 2.36-5.1 2.66-5.18 3-5.3 3.36-5.42 3.78-5.6 4.25-5.8 4.8-6.05 5.46-6.35 6.2-6.7 7.14-7.1 8.25-7.63 9.64-8.28 11.4-9.1 13.72-10.22 16.88-11.75 21.42-14.16 28.6-107.03 269.26-18.86 42.55-14.17 28.65-11.77 21.46-10.23 16.9-9.13 13.77-8.3 11.46-7.66 9.67-7.14 8.28-6.72 7.17-6.37 6.24-6.06 5.5-5.84 4.82-5.63 4.27-5.47 3.8-5.33 3.38-5.22 3-5.13 2.7-3.34 1.57v-1.1l2.9-1.37 5.1-2.66 5.17-3 5.3-3.36 5.43-3.78 5.6-4.25 5.8-4.8 6.05-5.45 6.33-6.2 6.7-7.14 7.1-8.25 7.64-9.65 8.28-11.4 9.1-13.73 10.2-16.88 11.76-21.42 14.17-28.62 18.85-42.5 107.05-269.28 14.2-28.66 11.76-21.46 10.22-16.9 9.13-13.77 8.32-11.45 7.66-9.67 7.14-8.27 6.72-7.16 6.36-6.24 6.08-5.47 5.84-4.83 5.63-4.28 5.46-3.8 5.34-3.4 5.22-3 5.14-2.7 5.07-2.37 5.03-2.12 5-1.86 5-1.63 5.04-1.4 5.06-1.2 5.12-.97 4.84-.7z" fill="#666"/><path d="M709.74 1775.02l-.57.03.04-.53v-.47l.5-.03zM1187.1 1134.62l-13.95 5.54-.6-9.25z" fill="#666"/><path d="M1188.7 1134.52l-16 6.36-.68-10.63zm-15.1 4.92l11.88-4.7-12.38-3.18z" fill="#666"/><use xlink:href="#M" transform="matrix(1,0,0,1,751.354084501274,1754.0824977607808) translate(0 14.933333333333335)"/><path d="M754.66 1924.8l-2.37 1.12-4.25 1.78-4.2 1.57-4.17 1.35-4.17 1.17-4.17.97-4.2.8-4.26.63-4.3.45-4.38.28-4.47.1-.03-1 4.45-.1 4.33-.27 4.27-.45 4.2-.6 4.17-.8 4.14-.98 4.13-1.15 4.13-1.35 4.16-1.55 4.18-1.76 2.78-1.3zm417.57-788.46l-.77.12-4.16.8-4.14.96-4.13 1.16-4.14 1.34-4.17 1.55-4.2 1.76-4.25 2-4.32 2.27-4.42 2.55-4.53 2.87-4.65 3.25-4.83 3.66-5.02 4.16-5.24 4.7-5.5 5.4-5.83 6.2-6.2 7.2-6.62 8.37-7.16 9.88-7.83 11.8-8.64 14.3-9.7 17.7-11.14 22.47-13.2 29.73-16.6 42.1-97.92 309.58-24.36 70.5-16.62 42.14-13.22 29.77-11.15 22.52-9.73 17.73-8.67 14.33-7.85 11.83-7.2 9.9-6.66 8.43-6.2 7.2-5.86 6.23-5.54 5.43-5.27 4.75-5.05 4.2-4.86 3.68-4.7 3.27-3.48 2.2v-1.18l2.92-1.85 4.67-3.25 4.82-3.66 5-4.15 5.25-4.72 5.5-5.4 5.83-6.2 6.2-7.18 6.63-8.38 7.18-9.88 7.83-11.8 8.66-14.3 9.7-17.7 11.14-22.48 13.2-29.73 16.6-42.12 24.35-70.46 97.92-309.6 16.63-42.15 13.2-29.77 11.17-22.52 9.72-17.73 8.66-14.34 7.85-11.82 7.2-9.9 6.67-8.43 6.22-7.2 5.84-6.24 5.54-5.42 5.27-4.75 5.05-4.18 4.86-3.7 4.7-3.26 4.56-2.9 4.45-2.58 4.37-2.28 4.3-2.02 4.22-1.78 4.2-1.56 4.18-1.36 4.17-1.17 4.2-.98 4.2-.8.8-.12z" fill="#666"/><path d="M709.75 1935.02l-.58.04.04-.54v-.46l.48-.04zM1187.1 1134.65l-13.86 5.76-.74-9.23z" fill="#666"/><path d="M1188.7 1134.52l-15.9 6.62-.85-10.62zm-15 5.16l11.78-4.9-12.42-2.96z" fill="#666"/><use xlink:href="#M" transform="matrix(1,0,0,1,754.6590375064775,1910.0502997062006) translate(0 14.933333333333335)"/><path d="M549.2 1934.52c0 22.1-17.9 40-40 40-22.08 0-40-17.9-40-40s17.92-40 40-40c22.1 0 40 17.9 40 40z" stroke="#666" fill="#fff"/><use xlink:href="#N" transform="matrix(1,0,0,1,469.20777821728865,1894.5208766939254) translate(20.73546875 52.4609375)"/><path d="M411.45 1935.02H389.7v-1h21.75zm40.64 0h-29.46v-1h29.45z" fill="#666"/><path d="M389.7 1935.02h-.52l.03-.5v-.5h.5zM467.1 1934.52l-14.28 4.64v-9.27z" fill="#666"/><path d="M468.7 1934.52l-16.38 5.32v-10.64zm-15.38 3.95l12.15-3.95-12.15-3.95z" fill="#666"/><use xlink:href="#G" transform="matrix(1,0,0,1,411.4521590133136,1925.1875433605924) translate(0 12.444444444444446)"/><path d="M709.2 1934.52c0 22.1-17.9 40-40 40-22.08 0-40-17.9-40-40s17.92-40 40-40c22.1 0 40 17.9 40 40z" stroke="#666" fill="#fff"/><use xlink:href="#O" transform="matrix(1,0,0,1,629.2077782172887,1894.5208766939254) translate(20.73546875 52.4609375)"/><path d="M573.27 1935.02H549.7v-1h23.57zm38.82 0h-24.73v-1h24.72z" fill="#666"/><path d="M549.7 1935.02h-.52l.03-.5v-.5h.5zM627.1 1934.52l-14.28 4.64v-9.27z" fill="#666"/><path d="M628.7 1934.52l-16.38 5.32v-10.64zm-15.38 3.95l12.15-3.95-12.15-3.95z" fill="#666"/><use xlink:href="#o" transform="matrix(1,0,0,1,576.1759410661124,1925.1875433605924) translate(0 12.444444444444446)"/><path d="M701.6 1934.52c0 17.87-14.52 32.38-32.4 32.38-17.87 0-32.37-14.5-32.37-32.38 0-17.87 14.5-32.38 32.38-32.38 17.88 0 32.4 14.5 32.4 32.38z" stroke="#666" fill="none"/><path d="M549.2 814.52c0 22.1-17.9 40-40 40-22.08 0-40-17.9-40-40s17.92-40 40-40c22.1 0 40 17.9 40 40z" stroke="#666" fill="#fff"/><use xlink:href="#P" transform="matrix(1,0,0,1,469.20777821728865,774.5208766939252) translate(20.73546875 52.4609375)"/><path d="M709.2 814.52c0 22.1-17.9 40-40 40-22.08 0-40-17.9-40-40s17.92-40 40-40c22.1 0 40 17.9 40 40z" stroke="#666" fill="#fff"/><use xlink:href="#Q" transform="matrix(1,0,0,1,629.2077782172887,774.5208766939252) translate(20.73546875 52.4609375)"/><path d="M869.2 814.52c0 22.1-17.9 40-40 40-22.08 0-40-17.9-40-40s17.92-40 40-40c22.1 0 40 17.9 40 40z" stroke="#666" fill="#fff"/><use xlink:href="#R" transform="matrix(1,0,0,1,789.2077782172887,774.5208766939252) translate(20.73546875 52.4609375)"/><path d="M973.12 824.74l18.9 4.43 18.08 5.05 17.2 5.58 16.25 6.04 15.34 6.45 14.4 6.77 13.5 7.05 12.63 7.3 11.8 7.48 11 7.65 10.26 7.78 9.54 7.9 8.88 8 8.26 8.08 7.67 8.18 7.13 8.25 6.6 8.34 6.13 8.42 5.67 8.5 5.22 8.62 4.8 8.74 4.38 8.85 4 9 3.64 9.17 3.25 9.34 2.88 9.54 2.5 9.76 2.13 10 1.74 10.3 1.33 10.6.92 10.95.03.54-1 .03-.03-.52-.9-10.9-1.34-10.56-1.74-10.24-2.12-9.97-2.5-9.72-2.86-9.5-3.24-9.28-3.6-9.12-4-8.96-4.38-8.82-4.78-8.7-5.2-8.58-5.63-8.48-6.1-8.4-6.6-8.3-7.1-8.2-7.63-8.15-8.23-8.05-8.86-7.97-9.5-7.87-10.23-7.74-10.97-7.63-11.76-7.46-12.6-7.27-13.47-7.04-14.37-6.76-15.3-6.43-16.22-6.03-17.14-5.57-18.04-5.03-18.87-4.42-12.17-2.32v-1.02zm-82-10.27l21.18 1.33 20.83 2.2 15.78 2.32v1L933 819l-20.78-2.18-21.16-1.33-21.36-.45.02-1zM869.72 814.02l-.02 1h-.52l.03-.5v-.5zM1229.16 1092.4l-5.07-14.1 9.25-.3z" fill="#666"/><path d="M1229.2 1094.02l-5.82-16.2 10.64-.34zm-4.4-15.25l4.3 12.02 3.58-12.28z" fill="#666"/><use xlink:href="#M" transform="matrix(1,0,0,1,948.9119819781248,810.5597729387972) translate(0 14.933333333333335)"/><path d="M549.2 494.52c0 22.1-17.9 40-40 40-22.08 0-40-17.9-40-40s17.92-40 40-40c22.1 0 40 17.9 40 40z" stroke="#666" fill="#fff"/><use xlink:href="#S" transform="matrix(1,0,0,1,469.20777821728865,454.5208766939253) translate(30.120234375 52.4609375)"/><path d="M709.2 494.52c0 22.1-17.9 40-40 40-22.08 0-40-17.9-40-40s17.92-40 40-40c22.1 0 40 17.9 40 40z" stroke="#666" fill="#fff"/><use xlink:href="#T" transform="matrix(1,0,0,1,629.2077782172887,454.5208766939253) translate(30.120234375 52.4609375)"/><path d="M549.2 334.52c0 22.1-17.9 40-40 40-22.08 0-40-17.9-40-40s17.92-40 40-40c22.1 0 40 17.9 40 40z" stroke="#666" fill="#fff"/><use xlink:href="#U" transform="matrix(1,0,0,1,469.20777821728865,294.5208766939253) translate(30.120234375 52.4609375)"/><path d="M709.2 334.52c0 22.1-17.9 40-40 40-22.08 0-40-17.9-40-40s17.92-40 40-40c22.1 0 40 17.9 40 40z" stroke="#666" fill="#fff"/><use xlink:href="#V" transform="matrix(1,0,0,1,629.2077782172887,294.5208766939253) translate(30.120234375 52.4609375)"/><path d="M765.75 336.43l30.6 3.22 31.74 4.7 32.25 6.14 32.14 7.53 31.4 8.77 30.12 9.78 28.46 10.58L1009 398.3l24.5 11.52 22.4 11.7 20.36 11.76 18.46 11.7 16.67 11.6 15.03 11.4 13.54 11.2 12.2 10.97 10.97 10.74 9.88 10.5 8.9 10.3 8 10.1 7.2 9.92 6.48 9.74 5.26 8.65 5.4 9.74 5.1 10.18 4.82 10.7 4.53 11.3 4.25 12 3.95 12.9 3.63 13.93 3.3 15.22 2.9 16.8 2.46 18.9 1.9 21.62 1.15 25.54.1 31.68-1.7 43.46-20.64 263.37-.98-.08 20.64-263.35 1.7-43.42-.1-31.63-1.17-25.5-1.9-21.6-2.45-18.84-2.9-16.77-3.3-15.18-3.62-13.9-3.93-12.83-4.23-12-4.5-11.25-4.8-10.65-5.1-10.14-5.37-9.7-5.24-8.6-6.45-9.7-7.17-9.88-7.98-10.07-8.87-10.27-9.85-10.5-10.95-10.7-12.16-10.95-13.5-11.17-15-11.38-16.65-11.56-18.42-11.68-20.34-11.74-22.35-11.68-24.44-11.5-26.5-11.13-28.4-10.57-30.1-9.78-31.36-8.75-32.1-7.53-32.2-6.14-31.7-4.7-30.58-3.2-14.75-.94v-1zm-29-1.84l2.33.14v1l-2.37-.15-27-.58.02-1zM709.72 334.02l-.02 1h-.52l.03-.5v-.5zM1234.14 1078.23l-4.9 14.17-4.37-14.35z" fill="#666"/><path d="M1234.83 1077.74l-5.62 16.28-5-16.48zm-5.56 13.05l4.17-12.1-7.9-.13z" fill="#666"/><use xlink:href="#M" transform="matrix(1,0,0,1,739.0844631563897,324.41631416793894) translate(0 14.933333333333335)"/><path d="M827.4 501.5l37.84 5.57 35.32 6.73 32.33 7.57 29.22 8.15 26.23 8.5 23.43 8.72 20.9 8.78 18.65 8.76 16.65 8.7 14.9 8.6 13.37 8.48 12 8.34 10.84 8.22 9.77 8.1 8.86 7.96 8.04 7.87 7.3 7.78 6.65 7.7.8.96 6.14 7.83 5.9 8.23 5.7 8.67 5.5 9.2 5.3 9.76 5.14 10.45 4.94 11.27 4.76 12.2 4.57 13.37 4.36 14.76 4.14 16.5 3.88 18.74 3.54 21.74 3.12 25.97 2.54 32.67 1.6 45.8-1.77 163.24h-1l1.77-163.22-1.6-45.76-2.55-32.6-3.12-25.94-3.54-21.7-3.86-18.7-4.13-16.46-4.36-14.72-4.54-13.32-4.75-12.18-4.9-11.23-5.12-10.42-5.28-9.74-5.48-9.14-5.67-8.64-5.9-8.2-6.1-7.8-.8-.95-6.62-7.67-7.27-7.75-8-7.84-8.84-7.93-9.75-8.07-10.8-8.2-11.98-8.3-13.34-8.46-14.86-8.58-16.62-8.68-18.6-8.75-20.87-8.76-23.38-8.7-26.2-8.5-29.18-8.13-32.3-7.56-35.27-6.73-37.8-5.57-4.82-.5v-1zm-79.27-6.67l39.77 2.5 22.73 2.4v1l-22.8-2.4-39.75-2.5-38.38-.8.02-1zM709.72 494.02l-.02 1h-.52l.03-.5v-.5zM1234.02 1078.2l-4.8 14.2-4.47-14.3z" fill="#666"/><path d="M1234.7 1077.7l-5.5 16.32-5.14-16.44zm-5.46 13.08l4.08-12.1-7.9-.1z" fill="#666"/><use xlink:href="#M" transform="matrix(1,0,0,1,810.6301848678527,489.6492029729936) translate(0 14.933333333333335)"/><path d="M576.4 495.02h-26.7v-1h26.7zm35.7 0h-25.32v-1h25.3z" fill="#666"/><path d="M549.7 495.02h-.52l.03-.5v-.5h.5zM627.1 494.52l-14.28 4.64v-9.27z" fill="#666"/><path d="M628.7 494.52l-16.38 5.32V489.2zm-15.38 3.95l12.15-3.95-12.15-3.95z" fill="#666"/><use xlink:href="#W" transform="matrix(1,0,0,1,576.404933723482,485.18754336059203) translate(0 12.444444444444446)"/><path d="M434.4 495.02h-44.7v-1h44.7zm17.7 0h-6.52v-1h6.5z" fill="#666"/><path d="M389.7 495.02h-.52l.03-.5v-.5h.5zM467.1 494.52l-14.28 4.64v-9.27z" fill="#666"/><path d="M468.7 494.52l-16.38 5.32V489.2zm-15.38 3.95l12.15-3.95-12.15-3.95z" fill="#666"/><use xlink:href="#w" transform="matrix(1,0,0,1,434.386776422769,485.18754336059203) translate(0 12.444444444444446)"/><path d="M430.22 335.02h-40.5v-1h40.5zm21.87 0h-10.7v-1h10.7zM389.7 335.02h-.52l.03-.5v-.5h.5zM467.1 334.52l-14.28 4.64v-9.27z" fill="#666"/><path d="M468.7 334.52l-16.38 5.32V329.2zm-15.38 3.95l12.15-3.95-12.15-3.95z" fill="#666"/><use xlink:href="#o" transform="matrix(1,0,0,1,430.22184514413505,325.187543360592) translate(0 12.444444444444446)"/><path d="M573.9 335.02h-24.2v-1h24.2zm38.2 0h-27v-1h27z" fill="#666"/><path d="M549.7 335.02h-.52l.03-.5v-.5h.5zM627.1 334.52l-14.28 4.64v-9.27z" fill="#666"/><path d="M628.7 334.52l-16.38 5.32V329.2zm-15.38 3.95l12.15-3.95-12.15-3.95z" fill="#666"/><use xlink:href="#o" transform="matrix(1,0,0,1,573.9119742570045,325.18754336059203) translate(0 12.444444444444446)"/><path d="M1429.2 1134.52c0 22.1-17.9 40-40 40-22.08 0-40-17.9-40-40s17.92-40 40-40c22.1 0 40 17.9 40 40z" stroke="#666" fill="#fff"/><use xlink:href="#X" transform="matrix(1,0,0,1,1349.2077782172887,1094.5208766939254) translate(20.73546875 52.4609375)"/><path d="M1429.2 1294.52c0 22.1-17.9 40-40 40-22.08 0-40-17.9-40-40s17.92-40 40-40c22.1 0 40 17.9 40 40z" stroke="#666" fill="#fff"/><use xlink:href="#Y" transform="matrix(1,0,0,1,1349.2077782172887,1254.5208766939254) translate(20.73546875 52.4609375)"/><path d="M1589.2 1294.52c0 22.1-17.9 40-40 40-22.08 0-40-17.9-40-40s17.92-40 40-40c22.1 0 40 17.9 40 40z" stroke="#666" fill="#fff"/><use xlink:href="#Z" transform="matrix(1,0,0,1,1509.2077782172887,1254.5208766939254) translate(20.73546875 52.4609375)"/><path d="M1429.7 1294.52h62.4" stroke="#666" fill="none"/><path d="M1429.7 1295.02h-.52l.03-.5v-.5h.5zM1507.1 1294.52l-14.28 4.64v-9.27z" fill="#666"/><path d="M1508.7 1294.52l-16.38 5.32v-10.64zm-15.38 3.95l12.15-3.95-12.15-3.95zM1389.16 1069.76l.55 24.25-1 .03-.54-24.22-1.86-28.85h1zm-816.7-876.74l25.26 1.08 26.54 2.24 27.92 3.55 29.4 4.98 30.96 6.6 32.6 8.4 34.28 10.38 35.97 12.55 37.6 14.92 39.05 17.43 40.27 20.02 41.08 22.6 41.36 25.1 40.98 27.25 39.84 28.97 37.95 30.1 35.38 30.55 10.63 9.98 11 11.23 11.27 12.53 11.6 14 11.93 15.75 12.32 17.74 12.73 20.06 13.14 22.78 13.56 25.96 13.95 29.68 14.28 34 14.5 39 14.44 44.53 14.05 50.4 13.07 55.83 11.32 59.34 8.63 58.46 4.37 41.25h-1l-4.36-41.12-8.64-58.42-11.3-59.3-13.08-55.8-14.04-50.34-14.43-44.5-14.47-38.94-14.26-33.97-13.94-29.65-13.54-25.93-13.12-22.74-12.7-20.03-12.3-17.7-11.92-15.72-11.56-14-11.25-12.5-10.97-11.18-10.6-9.96-35.34-30.54-37.93-30.07-39.8-28.96-40.94-27.23-41.33-25.05-41.04-22.6-40.24-20-39.02-17.4-37.56-14.9-35.93-12.54-34.23-10.36-32.56-8.38-30.9-6.6-29.37-4.98-27.87-3.54-26.5-2.24-25.23-1.08h-24.06l-23 .94-4.1.27L505 196.7l-15.47 2.08-14.73 2.6-14.06 3.1-13.46 3.55-12.92 4-12.42 4.43-11.98 4.84-11.57 5.25-11.2 5.66-10.87 6.08-10.55 6.5-10.27 6.93-10 7.4-9.75 7.84-9.53 8.35-9.32 8.87-9.12 9.45-8.92 10.05-8.73 10.7-8.54 11.44-8.36 12.2-8.14 13.05-7.93 13.98-7.7 15-7.43 16.1-7.15 17.35-6.8 18.72-5.93 18.58-6.2 22.63-6.14 26.7-5.94 31.94-5.6 39.05-4.93 49.17-3.78 65.4-1.53 103.47 1.45 129.02h-1l-1.45-129.02 1.52-103.5 3.78-65.45 4.93-49.23 5.6-39.1 5.95-31.98 6.14-26.73 6.2-22.67 5.94-18.62 6.82-18.76 7.16-17.4 7.45-16.14 7.72-15.03 7.94-14 8.17-13.1 8.38-12.22 8.56-11.46 8.76-10.75 8.95-10.08 9.14-9.48 9.34-8.9 9.57-8.4 9.8-7.87 10.04-7.4 10.3-6.96 10.58-6.52 10.9-6.1 11.24-5.67 11.6-5.27 12.02-4.86 12.47-4.44 12.95-4 13.5-3.58 14.1-3.1 14.78-2.6 15.5-2.08 16.3-1.5 4.15-.26 23.02-.95zM1389.72 1094.55l-.5-.03-.5.02v-.5l1-.03zM189.2 933.16l-4.8-14.2 9.26-.1z" fill="#666"/><path d="M189.2 934.78l-5.5-16.32 10.65-.12zm-4.1-15.34l4.07 12.1 3.8-12.2z" fill="#666"/><use xlink:href="#aa" transform="matrix(1,0,0,1,1379.7067087349699,1022.2803215476748) translate(0 12.444444444444446)"/><path d="M1298.2 1135.02h-28.5v-1h28.5zm33.9 0h-25.26v-1h25.25z" fill="#666"/><path d="M1269.7 1135.02h-.52l.03-.5v-.5h.5zM1347.1 1134.52l-14.28 4.64v-9.27z" fill="#666"/><path d="M1348.7 1134.52l-16.38 5.32v-10.64zm-15.38 3.95l12.15-3.95-12.15-3.95z" fill="#666"/><use xlink:href="#ab" transform="matrix(1,0,0,1,1298.1949191073911,1125.1875433605924) translate(0 12.444444444444446)"/><path d="M1246.9 1238l2.6 4.1 2.76 3.96 2.9 3.84 3.08 3.7 3.2 3.58 3.38 3.43 3.5 3.3 3.64 3.15 3.78 3 3.9 2.82 4.02 2.68 4.15 2.5 4.28 2.35 4.37 2.18 4.5 2 4.58 1.8 4.7 1.65 4.8 1.45 4.9 1.26 5.02 1.06 5.1.86 2.15.28-.13 1-2.17-.3-5.14-.86-5.05-1.07-4.93-1.26-4.84-1.46-4.74-1.65-4.65-1.83-4.52-2.02-4.42-2.2-4.3-2.35-4.17-2.54-4.06-2.7-3.94-2.87-3.8-3-3.68-3.18-3.53-3.32-3.4-3.47-3.24-3.6-3.1-3.74-2.93-3.87-2.78-4-2.62-4.12-1.26-2.18h1.15zm-17.08-57.52l.34 5.36.55 5.25.77 5.15.97 5.05 1.16 4.96 1.35 4.85 1.55 4.76.67 1.82h-1.06l-.55-1.5-1.55-4.78-1.37-4.9-1.17-5-.97-5.1-.78-5.18-.56-5.3-.34-5.4-.1-5.5h1z" fill="#666"/><path d="M1229.2 1174.52l.48-.02.03.5-1 .05-.02-.56zM1347.1 1294.4l-14.55 3.7.6-9.25z" fill="#666"/><path d="M1348.7 1294.52l-16.7 4.24.7-10.63zm-15.6 2.93l12.38-3.14-11.86-4.73z" fill="#666"/><use xlink:href="#ac" transform="matrix(1,0,0,1,1225.3838021648235,1217.6842903163758) translate(0 12.444444444444446)"/><path d="M1395.6 1349.82l1.28 1.2 1.47 1.16 1.7 1.13 1.93 1.1 2.25 1.05 2.58.96 2.98.85 3.36.67 3.76.45 4.08.16 4.3-.16 4.3-.5 4.18-.83 1.52-.42v1.03l-1.3.37-4.24.83-4.4.52-4.36.17-4.16-.17-3.83-.46-3.46-.68-3.04-.86-2.66-1-2.3-1.06-2.03-1.13-1.74-1.18-1.53-1.22-1.34-1.25-.12-.1.74-.7zm37.25-55.65l2.95.4 2.77.68 2.64.9 2.53 1.13 2.4 1.37 2.3 1.6 2.2 1.87 2.07 2.12 1.92 2.38 1.74 2.63 1.53 2.87 1.28 3.06 1 3.2.7 3.27.38 3.27.07 3.2-.23 3.1-.48 2.9-.73 2.76-.96 2.56-.5 1.07h-1.12l.7-1.45.9-2.47.72-2.66.47-2.83.23-3-.07-3.1-.37-3.2-.7-3.16-.96-3.12-1.25-2.97-1.5-2.8-1.7-2.54-1.85-2.3-2-2.05-2.12-1.8-2.23-1.56-2.32-1.33-2.43-1.1-2.55-.86-2.7-.63-2.84-.4-3.07-.15.03-1z" fill="#666"/><path d="M1429.83 1294.04l-.24.97-.42-.1.03-.38v-.64zM1399.35 1348.1l-8.62 3.4-.93-14.97z" fill="#666"/><path d="M1400.17 1348.3l-9.9 3.92-1.06-17.2zm-9 2.48l7.36-2.9-8.13-9.85z" fill="#666"/><use xlink:href="#ac" transform="matrix(1,0,0,1,1435.2784396082623,1340.5136893034894) translate(0 12.444444444444446)"/><path d="M1556 1351.4l1.58 1.6 1.82 1.58 2.1 1.53 2.4 1.5 2.72 1.37 3.07 1.26 3.38 1.08 3.66.86 3.84.56 3.9.26 3.8-.06 3.64-.35 3.37-.6 3.03-.8 2.73-.97 2.4-1.08 2.14-1.16.6-.4v1.2l-.08.06-2.2 1.2-2.5 1.1-2.8 1-3.12.83-3.44.6-3.7.37-3.9.06-4-.26-3.9-.58-3.74-.86-3.47-1.1-3.15-1.3-2.8-1.42-2.47-1.52-2.15-1.58-1.88-1.62-1.63-1.65-1.12-1.36.77-.64zm36.08-57.28l2.25.28 2.15.45 2.06.63 2 .78 1.95.97 1.9 1.15 1.88 1.35 1.84 1.6 1.8 1.82 1.76 2.1 1.7 2.4 1.58 2.74 1.45 3.04 1.27 3.35 1.02 3.58.73 3.75.42 3.8.1 3.73-.2 3.57-.45 3.34-.7 3.06-.87 2.76-1.02 2.48-1.13 2.23-.72 1.17v-1.95l.95-1.86 1-2.4.84-2.7.67-2.97.46-3.26.2-3.5-.1-3.64-.42-3.72-.72-3.67-1-3.5-1.23-3.27-1.43-2.97-1.55-2.66-1.64-2.34-1.7-2.04-1.74-1.77-1.78-1.53-1.8-1.3-1.85-1.1-1.86-.94-1.93-.76-1.97-.6-2.07-.43-2.16-.28-2.3-.1.03-1z" fill="#666"/><path d="M1589.85 1294.04l-.28.96-.4-.1.04-.38-.02-.67zM1558.78 1348.52l-8.76 3.03-.28-15z" fill="#666"/><path d="M1559.6 1348.76l-10.07 3.5-.32-17.24zm-9.1 2.1l7.47-2.6-7.7-10.18z" fill="#666"/><use xlink:href="#ab" transform="matrix(1,0,0,1,1606.211453113329,1345.4813788015406) translate(0 12.444444444444446)"/><path d="M1514.1 1212.97l3.6 1.4 3.25 1.46 2.94 1.46 2.66 1.45 2.4 1.46 2.2 1.46 1.97 1.44 1.8 1.42 1.62 1.4 1.5 1.4 1.34 1.38 1.23 1.37 1.12 1.36 1.03 1.35.93 1.34.86 1.35.78 1.34.7 1.35.63 1.34.57 1.35.5 1.37.46 1.38.4 1.4.32 1.42.28 1.45.22 1.47.16 1.52.1 1.56.03 1.6h-1l-.02-1.56-.1-1.52-.15-1.47-.22-1.44-.26-1.4-.32-1.4-.38-1.34-.43-1.36-.5-1.32-.54-1.32-.62-1.3-.68-1.3-.75-1.32-.82-1.3-.9-1.3-1-1.33-1.1-1.33-1.22-1.33-1.32-1.36-1.45-1.37-1.6-1.38-1.78-1.4-1.94-1.42-2.15-1.43-2.37-1.43-2.63-1.44-2.9-1.44-3.22-1.43-3.53-1.4-.8-.27v-1.06zm-35.5-7.16l4.13.36v1l-4.2-.35-6.2-.25h-6.26l-6.2.26-6.03.52-5.78.73-5.45.92-5.07 1.08-4.7 1.2-4.28 1.3-3.9 1.36-3.56 1.4-3.22 1.44-2.9 1.44-2.63 1.44-2.37 1.44-2.15 1.42-1.94 1.42-1.77 1.4-1.6 1.37-1.46 1.37-1.32 1.35-1.2 1.33-1.1 1.32-1 1.32-.9 1.3-.84 1.32-.75 1.3-.5.94-.88-.47.5-.96.78-1.33.85-1.34.94-1.35 1.02-1.35 1.13-1.36 1.22-1.37 1.35-1.38 1.5-1.4 1.62-1.4 1.78-1.42 1.98-1.44 2.18-1.45 2.4-1.44 2.67-1.47 2.96-1.47 3.25-1.44 3.6-1.43 3.94-1.38 4.33-1.3 4.73-1.23 5.12-1.08 5.5-.94 5.8-.73 6.1-.5 6.23-.28h6.3z" fill="#666"/><path d="M1549.83 1254.56l-.62-.04-.4.02-.08-.42.98-.2zM1397.4 1239.64l-7.82 12.8-1.2-14.94z" fill="#666"/><path d="M1398.18 1239.3l-8.97 14.72-1.38-17.17zm-8.22 11.57l6.65-10.9-7.67-1.83z" fill="#666"/><use xlink:href="#ac" transform="matrix(1,0,0,1,1482.7325911918279,1199.5608119429492) translate(0 12.444444444444446)"/><path d="M1442.94 1111.63l.3 5.72.23 10.92-.18 8.9-.47 7.43-.66 6.3-.8 5.42-.9 4.74-.98 4.2-1.06 3.75-1.1 3.4-1.16 3.12-1.2 2.87-1.27 2.67-1.3 2.54-1.4 2.42-1.5 2.34-1.58 2.28-1.73 2.3-1.95 2.33-2.27 2.5-2.88 2.95-8.1 7.46-5.15 4.8-2.4 2.44-1.8 1.98-1.45 1.77-1.26 1.65-1.1 1.6-1.02 1.6-.9 1.57-.85 1.6-.78 1.66-.74 1.72-.67 1.8-.63 1.93-.58 2.06-.53 2.22-.46 2.43-.38 2.7-.32 3-.2 3.4-.1 3.93-1-.02.1-3.93.2-3.45.32-3.05.4-2.72.48-2.47.53-2.27.58-2.08.65-1.96.68-1.85.74-1.75.8-1.7.86-1.64.94-1.6 1.02-1.63 1.13-1.63 1.3-1.7 1.48-1.8 1.82-2 2.43-2.5 5.17-4.8 8.1-7.44 2.84-2.9 2.23-2.48 1.9-2.3 1.7-2.27 1.58-2.25 1.46-2.3 1.37-2.38 1.32-2.5 1.24-2.64 1.2-2.83 1.13-3.07 1.08-3.36 1.04-3.72.97-4.15.9-4.7.78-5.38.65-6.25.46-7.38.17-8.87-.23-10.88-.3-5.7-5.36-65.04h1zM581.04 111.3l12.13.97 14.64 1.8 17.84 2.94 21.87 4.58 27 6.82 33.3 9.92 40.73 14.02 48.8 19.1 56.37 24.83 61.72 30.32 63.43 34.5 61.14 36.63 55.73 36.66 48.76 35.05 41.47 32.54 34.72 29.66 28.8 26.78 23.82 24.1 19.7 21.65 16.3 19.5 13.55 17.67 11.26 16.03 9.4 14.64 7.83 13.42 2.45 4.58 4.12 8.33 4.68 10.6 5.4 13.8 6.34 18.37 7.5 25.15 9.02 35.64 10.96 52.53 13.3 80.5 15.3 124.88 5.62 68.14h-1l-5.6-68.05-15.3-124.85-13.3-80.45-10.95-52.48-9.02-35.6-7.5-25.13-6.3-18.32-5.4-13.75-4.67-10.58-4.08-8.3-2.44-4.55-7.8-13.4-9.38-14.6-11.24-16-13.5-17.6-16.3-19.5-19.67-21.63-23.8-24.06-28.78-26.75-34.68-29.63-41.45-32.52-48.74-35.04-55.7-36.62-61.1-36.62-63.4-34.48-61.68-30.3-56.32-24.8-48.77-19.1-40.7-14-33.27-9.9-26.94-6.83-21.85-4.55-17.78-2.94-14.6-1.8-12.1-.96-10.12-.4-10.1.06-10.13.47-10.27.9-10.42 1.38-10.62 1.86-10.84 2.36-11.12 2.9-11.42 3.52-11.77 4.16-12.17 4.9-12.62 5.68-13.1 6.6-13.7 7.6L408.3 163l-14.97 10.06-15.7 11.54-16.54 13.23-17.4 15.17-18.32 17.38-19.28 19.88-20.23 22.7-21.14 25.8-21.94 29.2-22.5 32.73-22.76 36.25-22.53 39.46-21.73 42.04-20.27 43.6-18.22 43.9-15.7 42.78-12.94 40.44-10.2 37.2-7.7 33.43-5.5 29.57-3.72 25.88-2.27 22.5-1.14 19.52-.3 16.92.38 14.7.86 12.82 1.23 11.23 1.5 9.87 1.7 8.72 1.86 7.75 1.95 6.9 2.04 6.2 2.1 5.6 2.15 5.04 2.18 4.6 2.2 4.17 2.24 3.84 2.25 3.5 2.27 3.25 2.28 2.97 2.3 2.77 2.35 2.57 2.36 2.4 2.38 2.22 2.42 2.08 2.47 1.93 2.5 1.8 2.57 1.7 2.63 1.57 2.7 1.46 2.76 1.36 2.86 1.26 2.95 1.16 3.07 1.05 3.2.94 3.33.84 3.5.72 1.4.23-.17 1-1.4-.24-3.55-.75-3.38-.85-3.23-.96-3.1-1.07-3-1.17-2.9-1.27-2.82-1.38-2.73-1.48-2.66-1.6-2.6-1.7-2.53-1.84-2.5-1.96-2.46-2.1-2.4-2.25-2.4-2.42-2.36-2.6-2.34-2.8-2.3-3.02-2.3-3.27-2.28-3.54-2.25-3.86-2.23-4.22-2.2-4.63-2.17-5.1-2.12-5.6-2.06-6.25-1.98-6.95-1.86-7.8-1.7-8.76-1.52-9.93-1.23-11.26-.86-12.86-.37-14.75.3-16.97 1.14-19.55L58 775.13l3.72-25.92 5.53-29.6 7.7-33.5 10.22-37.22L98.1 608.4l15.72-42.82 18.23-43.93 20.3-43.65 21.74-42.07 22.54-39.5 22.77-36.27 22.54-32.76 21.96-29.23 21.17-25.85 20.26-22.72 19.3-19.9L343 212.27l17.42-15.2 16.56-13.26 15.75-11.56 15-10.08 14.34-8.77 13.7-7.62 13.16-6.6 12.66-5.7 12.2-4.9 11.8-4.2 11.47-3.5 11.16-2.93 10.88-2.37 10.68-1.86 10.46-1.37 10.3-.9 10.2-.5 10.13-.04z" fill="#666"/><path d="M1389.7 1254.06l-.04.5-.45-.04-.54.02.05-.57zM147.1 975.15l-14.6 3.45.76-9.24z" fill="#666"/><path d="M148.7 975.28l-16.76 3.97.87-10.6zm-15.65 2.68l12.43-2.94-11.78-4.93z" fill="#666"/><use xlink:href="#aa" transform="matrix(1,0,0,1,1429.8313960487765,1027.9945147242565) translate(0 12.444444444444446)"/><path d="M423.16 815.02H389.7v-1h33.46zm28.93 0h-16.84v-1h16.83z" fill="#666"/><path d="M389.7 815.02h-.52l.03-.5v-.5h.5zM467.1 814.52l-14.28 4.64v-9.27z" fill="#666"/><path d="M468.7 814.52l-16.38 5.32V809.2zm-15.38 3.95l12.15-3.95-12.15-3.95z" fill="#666"/><use xlink:href="#v" transform="matrix(1,0,0,1,423.1589879906426,805.1875433605919) translate(0 12.444444444444446)"/><path d="M572.16 815.02H549.7v-1h22.46zm39.93 0h-29.57v-1h29.56z" fill="#666"/><path d="M549.7 815.02h-.52l.03-.5v-.5h.5zM627.1 814.52l-14.28 4.64v-9.27z" fill="#666"/><path d="M628.7 814.52l-16.38 5.32V809.2zm-15.38 3.95l12.15-3.95-12.15-3.95z" fill="#666"/><use xlink:href="#r" transform="matrix(1,0,0,1,572.1643199388353,805.1875433605919) translate(0 12.444444444444446)"/><path d="M743.6 815.02h-33.9v-1h33.9zm28.5 0h-17.3v-1h17.3z" fill="#666"/><path d="M709.7 815.02h-.52l.03-.5v-.5h.5zM787.1 814.52l-14.28 4.64v-9.27z" fill="#666"/><path d="M788.7 814.52l-16.38 5.32V809.2zm-15.38 3.95l12.15-3.95-12.15-3.95z" fill="#666"/><use xlink:href="#o" transform="matrix(1,0,0,1,743.6126916943464,805.1875433605919) translate(0 12.444444444444446)"/><path d="M1549.7 1254l-1 .03-1.42-66.07h1zM574.04 39.6l19.14.86 21.76 1.88 24.7 3.18 27.95 4.8 31.44 6.77 35.04 9.07 38.56 11.75 41.76 14.65 44.34 17.67 46.08 20.64 46.84 23.38L998.22 180l45.4 27.6 43.42 28.98 40.95 29.87 38.12 30.34 35.15 30.45 32.16 30.3 29.24 29.98 26.46 29.5 23.85 28.94 21.44 28.34 19.15 27.64 19.83 31.25 19.48 33.76 19.1 36.57 18.67 39.7 18.14 43.16 17.47 47.03 16.66 51.3 15.6 55.96 14.28 60.9 12.58 65.97 10.4 70.65 7.8 74.05 3.58 57.02h-1l-3.6-56.95-7.76-74-10.4-70.6-12.57-65.93-14.26-60.88-15.6-55.92-16.64-51.27-17.47-47-18.12-43.13-18.65-39.65-19.1-36.53-19.46-33.73-19.8-31.2-19.13-27.6-21.4-28.3-23.83-28.92-26.43-29.47-29.2-29.93L1200.6 328l-35.12-30.44-38.1-30.3-40.9-29.86-43.4-28.96-45.36-27.6-46.54-25.7-46.8-23.36-46.05-20.62-44.3-17.66-41.72-14.63-38.5-11.73-35-9.08-31.4-6.76-27.92-4.8-24.66-3.17-21.7-1.87L574 40.6l-11.1-.1-11.97.3-12 .8-12.06 1.32-12.16 1.85-12.3 2.4-12.48 2.98-12.7 3.6-12.94 4.27-13.24 5-13.58 5.77-13.95 6.63-14.38 7.6-14.86 8.66-15.38 9.85-15.95 11.2-16.57 12.68-17.23 14.38-17.94 16.3-18.66 18.43-19.4 20.83-20.07 23.48-20.73 26.38-21.24 29.5-21.55 32.75-21.58 36-21.24 39-20.4 41.58-19.1 43.35-17.26 44.1-15.02 43.73L62.4 597.4l-10.02 39.64-7.6 36.48-5.46 32.96-3.6 29.4-2.1 25.98-.87 22.85.08 20.05.8 17.57 1.35 15.44 1.77 13.6 2.07 12 2.3 10.64 2.48 9.48 2.6 8.47 2.67 7.6 2.75 6.87 2.8 6.2 2.8 5.63 2.86 5.14 2.87 4.68 2.9 4.3 2.9 3.97 2.9 3.66 2.95 3.4 2.96 3.12 3 2.9 3 2.7 3.07 2.5 3.1 2.35 3.17 2.17 3.2 2.03 3.3 1.87 3.36 1.75 3.46 1.6 3.55 1.47 3.68 1.35 3.8 1.22 3.95 1.08 4.1.95 4.32.8 2.6.37-.15 1-2.62-.38-4.34-.8-4.15-.97-4-1.1-3.83-1.23-3.7-1.37-3.6-1.5-3.5-1.62-3.4-1.76-3.32-1.9-3.25-2.04-3.2-2.2-3.13-2.36-3.1-2.54-3.05-2.73-3.02-2.93-3-3.16-2.96-3.4-2.96-3.7-2.92-4-2.9-4.34-2.9-4.73-2.87-5.18-2.84-5.67-2.8-6.24-2.76-6.9-2.7-7.63-2.6-8.52-2.48-9.52-2.32-10.68-2.08-12.05-1.78-13.63-1.35-15.48-.8-17.63-.08-20.08.88-22.9 2.1-26.02 3.6-29.44 5.45-33 7.62-36.52 10.03-39.7L74 554.92l15.04-43.75L106.3 467l19.1-43.38 20.45-41.6 21.25-39.05 21.6-36.03 21.58-32.78 21.26-29.54 20.75-26.42 20.1-23.5 19.42-20.86 18.7-18.46 17.95-16.32 17.27-14.4 16.6-12.73 16-11.22 15.4-9.86 14.9-8.7 14.42-7.6 14-6.66 13.6-5.8 13.3-5 12.98-4.28 12.73-3.6 12.52-3 12.34-2.4 12.2-1.87 12.1-1.32 12.04-.8 12-.3zM1549.72 1254.55l-.5-.03-.5.02v-.5l1-.03z" fill="#666"/><path d="M147.1 975.17l-14.56 3.64.64-9.24z" fill="#666"/><path d="M148.7 975.28l-16.7 4.18.73-10.62zm-15.6 2.88l12.38-3.1-11.85-4.78z" fill="#666"/><use xlink:href="#aa" transform="matrix(1,0,0,1,1540.7707866391113,1169.2939854655128) translate(0 12.444444444444446)"/><path d="M1389.2 1919.52c0-2.76 2.25-5 5-5h230c2.77 0 5 2.24 5 5v50c0 2.76-2.23 5-5 5h-230c-2.75 0-5-2.24-5-5z" stroke="#000" stroke-opacity="0" fill="#fff" fill-opacity="0"/><use xlink:href="#ad" transform="matrix(1,0,0,1,1389.2077782172887,1914.5208766939254) translate(23.387716049382725 23.694444444444446)"/><use xlink:href="#ae" transform="matrix(1,0,0,1,1389.2077782172887,1914.5208766939254) translate(63.91858024691359 23.694444444444446)"/><use xlink:href="#af" transform="matrix(1,0,0,1,1389.2077782172887,1914.5208766939254) translate(85.52351851851853 23.694444444444446)"/><use xlink:href="#ag" transform="matrix(1,0,0,1,1389.2077782172887,1914.5208766939254) translate(102.80746913580248 23.694444444444446)"/><use xlink:href="#ah" transform="matrix(1,0,0,1,1389.2077782172887,1914.5208766939254) translate(165.80746913580248 23.694444444444446)"/><use xlink:href="#ai" transform="matrix(1,0,0,1,1389.2077782172887,1914.5208766939254) translate(99.32907407407409 42.361111111111114)"/><path d="M549.2 654.52c0 22.1-17.9 40-40 40-22.08 0-40-17.9-40-40s17.92-40 40-40c22.1 0 40 17.9 40 40z" stroke="#666" fill="#fff"/><use xlink:href="#aj" transform="matrix(1,0,0,1,469.20777821728865,614.5208766939252) translate(30.120234375 52.4609375)"/><path d="M709.2 653.76c0 22.1-17.9 40-40 40-22.08 0-40-17.9-40-40s17.92-40 40-40c22.1 0 40 17.9 40 40z" stroke="#666" fill="#fff"/><use xlink:href="#ak" transform="matrix(1,0,0,1,629.2077782172887,613.7598865491425) translate(30.120234375 52.4609375)"/><path d="M869.2 653.76c0 22.1-17.9 40-40 40-22.08 0-40-17.9-40-40s17.92-40 40-40c22.1 0 40 17.9 40 40z" stroke="#666" fill="#fff"/><use xlink:href="#al" transform="matrix(1,0,0,1,789.2077782172887,613.7598865491425) translate(30.120234375 52.4609375)"/><path d="M1029.2 654.52c0 22.1-17.9 40-40 40-22.08 0-40-17.9-40-40s17.92-40 40-40c22.1 0 40 17.9 40 40z" stroke="#666" fill="#fff"/><use xlink:href="#am" transform="matrix(1,0,0,1,949.2077782172886,614.5208766939252) translate(20.73546875 52.4609375)"/><path d="M1083.48 661.47l6.2 2.02 5.98 2.2 5.75 2.43 5.58 2.62 5.4 2.83 5.3 3.04 5.14 3.27 5.04 3.5 4.96 3.76 4.9 4.05 4.83 4.36 4.78 4.7 4.76 5.06 4.72 5.48 4.73 5.96 4.72 6.5 4.73 7.13 4.74 7.82 4.76 8.67 4.78 9.63 4.8 10.8 4.83 12.2 4.85 13.9 4.82 16 4.78 18.68 4.7 22.13 4.5 26.8 4.2 33.5 3.67 44.22 2.68 67.13.47 55.52h-1l-.47-55.5-2.68-67.1-3.66-44.17-4.2-33.46-4.5-26.75-4.68-22.08-4.77-18.63-4.8-15.96-4.83-13.86-4.8-12.16-4.8-10.76-4.76-9.6-4.73-8.64-4.72-7.8-4.7-7.08-4.7-6.47-4.7-5.93-4.7-5.45-4.73-5.05-4.76-4.66-4.8-4.33-4.86-4.02-4.93-3.74-5-3.48-5.12-3.25-5.24-3.02-5.36-2.8-5.53-2.6-5.7-2.4-5.94-2.22-6.17-2-.92-.26v-1.03zm-44.58-7.26l8.56.55 8.03.84 7.55 1.1 7.15 1.37.25.06v1.03l-.45-.1-7.12-1.37-7.5-1.12-8-.84-8.52-.53-9.16-.18.02-1z" fill="#666"/><path d="M1029.73 654.02l-.03 1-.52-.02.03-.48V654zM1229.2 1092.4l-4.76-14.22 9.27-.08z" fill="#666"/><path d="M1229.2 1094.02l-5.45-16.34 10.64-.1zm-4.07-15.35l4.05 12.1 3.85-12.17z" fill="#666"/><use xlink:href="#M" transform="matrix(1,0,0,1,1070.4540424037955,648.8272312705459) translate(0 14.933333333333335)"/><path d="M568.42 654.84l-18.7.18-.02-1 18.72-.18zm43.68-.42l-31.58.3v-1l31.57-.3z" fill="#666"/><path d="M549.7 655.02h-.52l.03-.5v-.5h.5zM627.1 653.78l-14.23 4.77-.1-9.27z" fill="#666"/><path d="M628.7 653.76l-16.32 5.48-.1-10.65zm-15.34 4.1l12.1-4.07-12.17-3.84z" fill="#666"/><use xlink:href="#v" transform="matrix(1,0,0,1,568.4176285473649,644.949051908086) translate(0 12.444444444444446)"/><path d="M725.84 654.26H709.7v-1h16.14zm46.25 0h-35.07v-1h35.06z" fill="#666"/><path d="M709.7 654.26h-.52l.03-.5v-.5h.5zM787.1 653.76l-14.28 4.64v-9.28z" fill="#666"/><path d="M788.7 653.76l-16.38 5.32v-10.64zm-15.38 3.95l12.15-3.94-12.15-3.95z" fill="#666"/><use xlink:href="#an" transform="matrix(1,0,0,1,725.8364682424989,644.4265532158092) translate(0 12.444444444444446)"/><path d="M889.27 654.26H869.7v-1h19.57zm42.87 0h-32.5v-1h32.5z" fill="#666"/><path d="M869.7 654.26h-.52l.03-.5v-.5h.5zM947.14 653.76l-14.27 4.64v-9.28z" fill="#666"/><path d="M948.75 653.76l-16.38 5.32v-10.64zm-15.38 3.95l12.15-3.94-12.15-3.95z" fill="#666"/><use xlink:href="#u" transform="matrix(1,0,0,1,889.270751467075,644.4265532158092) translate(0 12.444444444444446)"/><path d="M364.48 593.8l2.43 4.2 2.6 4.1 2.76 3.96 2.9 3.84 3.08 3.7 3.2 3.58 3.38 3.43 3.5 3.3 3.64 3.15 3.78 3 3.9 2.82 4.02 2.68 4.15 2.5 4.28 2.35 4.37 2.18 4.5 2 4.58 1.8 4.7 1.65 4.8 1.45 4.9 1.26 5.02 1.06 5.1.86 2.15.28-.13 1-2.17-.3-5.14-.86-5.05-1.07-4.93-1.26-4.84-1.46-4.74-1.65-4.65-1.83-4.52-2.02-4.42-2.2-4.3-2.35-4.17-2.54-4.06-2.7-3.94-2.87-3.8-3-3.68-3.18-3.53-3.32-3.4-3.47-3.24-3.6-3.1-3.74-2.93-3.87-2.78-4-2.62-4.12-2.45-4.25-2.25-4.3h1.12v-.02zm-14.66-53.32l.34 5.36.55 5.25.77 5.15.97 5.05 1.16 4.96 1.35 4.85.07.2h-1.05l-1.34-4.8-1.17-5-.97-5.1-.78-5.18-.56-5.3-.34-5.4-.1-5.5h1z" fill="#666"/><path d="M349.2 534.52l.48-.02.03.5-1 .05-.02-.56zM467.1 654.4l-14.55 3.7.6-9.25z" fill="#666"/><path d="M468.7 654.52l-16.7 4.24.7-10.63zm-15.6 2.93l12.38-3.14-11.86-4.73z" fill="#666"/><use xlink:href="#y" transform="matrix(1,0,0,1,353.0079612819796,571.3043110334625) translate(0 12.444444444444446)"/><path d="M1421.6 1134.52c0 17.87-14.52 32.38-32.4 32.38-17.87 0-32.37-14.5-32.37-32.38 0-17.87 14.5-32.38 32.38-32.38 17.88 0 32.4 14.5 32.4 32.38zM1421.6 1294.52c0 17.87-14.52 32.38-32.4 32.38-17.87 0-32.37-14.5-32.37-32.38 0-17.87 14.5-32.38 32.38-32.38 17.88 0 32.4 14.5 32.4 32.38zM1581.6 1294.52c0 17.87-14.52 32.38-32.4 32.38-17.87 0-32.37-14.5-32.37-32.38 0-17.87 14.5-32.38 32.38-32.38 17.88 0 32.4 14.5 32.4 32.38zM1582.1 1294.52h.3-.3M1582.1 1294.52h1.2" stroke="#666" fill="none"/><path d="M1583.3 1294.52l14.27-4.63v9.26z" stroke="#666" fill="#666"/><defs><path fill="#666" d="M593-112c147-102 148-459 107-694-21-121-67-219-141-278-56-45-132-48-190-8-149 104-147 457-109 689 20 123 62 222 136 282 55 45 138 50 197 9zm74-1073c247 158 282 757 101 1028C703-59 608 30 461 30c-227 0-318-189-361-388-74-338 17-693 227-826 99-63 242-64 340-1" id="ao"/><use transform="matrix(0.01953125,0,0,0.01953125,0,0)" xlink:href="#ao" id="a"/><path fill="#666" d="M139-1075c140-43 293-108 414-170l37 35v1067c17 46 70 53 126 69 32 9 74 15 124 21V0H170v-53c105-14 192-24 257-67 10-6 13-16 13-23-2-285 6-579-3-859-2-69-96-49-164-42-31 3-69 11-113 20" id="ap"/><use transform="matrix(0.01953125,0,0,0.01953125,0,0)" xlink:href="#ap" id="b"/><path fill="#666" d="M585-1040L213-460h372v-580zm289 610c-26 41-44 53-79 80h-70v246c7 29 40 33 71 44 18 6 41 11 68 17V0H375v-43c82-16 147-23 201-55 6-5 9-11 9-17v-235H88l-33-33 496-791c51-21 92-48 137-71l37 35v750h123" id="aq"/><use transform="matrix(0.01953125,0,0,0.01953125,0,0)" xlink:href="#aq" id="c"/><g id="d"><use transform="matrix(0.01953125,0,0,0.01953125,0,0)" xlink:href="#ap"/><use transform="matrix(0.01953125,0,0,0.01953125,18.76953125,0)" xlink:href="#ap"/></g><path fill="#666" d="M264-754c103-29 265-40 360 4 125 58 212 167 212 340 0 198-90 336-228 404-103 50-240 45-352 2-61-23-120-61-178-115l35-67c90 60 169 116 305 116 174 0 258-125 258-297 0-188-85-303-273-303-91 0-162 38-219 80l-47-33c30-186 67-381 82-582h436c48 0 87-6 121-18l29 29c-31 43-70 87-111 119H307c-8 105-26 226-43 321" id="ar"/><g id="e"><use transform="matrix(0.01953125,0,0,0.01953125,0,0)" xlink:href="#ap"/><use transform="matrix(0.01953125,0,0,0.01953125,18.76953125,0)" xlink:href="#ar"/></g><path fill="#666" d="M535-1235c212-4 338 160 275 373-64 217-223 354-360 525-52 65-115 136-184 216h418c81-12 89-97 102-178l50 12L821 0H127L98-74c171-201 325-369 463-574 57-86 107-151 107-276 0-137-63-221-201-221-116 0-176 96-187 211-40 21-70 45-128 49l-27-30c18-150 138-236 259-289 49-21 100-31 151-31" id="as"/><g id="f"><use transform="matrix(0.01953125,0,0,0.01953125,0,0)" xlink:href="#as"/><use transform="matrix(0.01953125,0,0,0.01953125,18.76953125,0)" xlink:href="#aq"/></g><path fill="#666" d="M555-698c161 29 270 138 270 317 0 259-155 411-419 411-158 0-251-69-338-149l34-67c85 60 155 116 291 116 173 0 272-103 272-278 0-177-97-277-276-275-19 0-27 3-47 7l-14-60c131-37 237-83 270-198 40-139-32-271-172-271-101 0-167 62-156 172-45 22-78 35-139 39l-27-31c19-128 125-199 234-243 45-19 94-27 145-27 180 0 285 104 285 277 0 142-108 208-213 260" id="at"/><g id="g"><use transform="matrix(0.01953125,0,0,0.01953125,0,0)" xlink:href="#at"/><use transform="matrix(0.01953125,0,0,0.01953125,18.76953125,0)" xlink:href="#aq"/></g><g id="h"><use transform="matrix(0.01953125,0,0,0.01953125,0,0)" xlink:href="#as"/><use transform="matrix(0.01953125,0,0,0.01953125,18.76953125,0)" xlink:href="#ao"/></g><path fill="#666" d="M731-348c0-181-64-312-231-312-101 0-173 53-230 124 1 202 39 362 162 434 33 20 72 27 113 27 143 0 186-130 186-273zM541-770c256-6 379 194 329 456C841-161 755-42 619 10 460 71 299-14 226-109c-67-87-118-210-116-364 4-336 151-554 376-679 85-48 186-80 302-97l19 59c-284 70-468 250-528 540 67-62 145-117 262-120" id="au"/><g id="i"><use transform="matrix(0.01953125,0,0,0.01953125,0,0)" xlink:href="#ap"/><use transform="matrix(0.01953125,0,0,0.01953125,18.76953125,0)" xlink:href="#au"/></g><path fill="#666" d="M104-948c11-83 25-181 43-257h705l33 38C728-799 568-429 432-44c-48 34-96 57-162 74L229-3c197-342 345-698 504-1072-161 1-324-1-483 1-31 7-43 26-62 56-12 20-24 49-38 88" id="av"/><g id="j"><use transform="matrix(0.01953125,0,0,0.01953125,0,0)" xlink:href="#ap"/><use transform="matrix(0.01953125,0,0,0.01953125,18.76953125,0)" xlink:href="#av"/></g><path fill="#666" d="M451-1141c-115 0-176 80-176 191 0 146 153 170 258 225 77-58 134-108 134-213 0-137-79-203-216-203zM500-70c141 0 207-100 207-239 0-186-143-240-273-301-93 72-180 139-180 295 0 153 91 245 246 245zm113-618c131 65 254 144 254 336C867-168 749-59 612 0c-91 39-222 41-313 4C183-42 94-132 94-285c0-191 134-281 263-359-108-53-212-113-212-271 0-206 149-320 357-320 186 0 315 85 315 266 0 148-112 210-204 281" id="aw"/><g id="k"><use transform="matrix(0.01953125,0,0,0.01953125,0,0)" xlink:href="#ap"/><use transform="matrix(0.01953125,0,0,0.01953125,18.76953125,0)" xlink:href="#aw"/></g><path fill="#666" d="M250-856c0 178 66 301 231 301 107 0 180-69 228-139-1-147-30-261-84-344-37-55-86-92-160-92-152 0-215 119-215 274zm188 411c-217 0-338-134-338-350 0-176 91-290 196-371 80-62 232-96 346-40 153 75 231 241 228 475-5 469-263 709-680 774l-18-59c296-75 497-232 533-561-64 68-144 132-267 132" id="ax"/><g id="l"><use transform="matrix(0.01953125,0,0,0.01953125,0,0)" xlink:href="#ap"/><use transform="matrix(0.01953125,0,0,0.01953125,18.76953125,0)" xlink:href="#ax"/></g><g id="m"><use transform="matrix(0.01953125,0,0,0.01953125,0,0)" xlink:href="#as"/><use transform="matrix(0.01953125,0,0,0.01953125,18.76953125,0)" xlink:href="#ap"/></g><g id="n"><use transform="matrix(0.01953125,0,0,0.01953125,0,0)" xlink:href="#as"/><use transform="matrix(0.01953125,0,0,0.01953125,18.76953125,0)" xlink:href="#as"/></g><path fill="#666" d="M30-248c118-7 216 8 213 122C240-48 200 0 122 0H30v-248zM63-27c89 8 146-16 146-99s-60-101-146-95v194" id="ay"/><use transform="matrix(0.04320987654320988,0,0,0.04320987654320988,0,0)" xlink:href="#ay" id="o"/><path fill="#666" d="M30 0v-248h33v221h125V0H30" id="az"/><use transform="matrix(0.04320987654320988,0,0,0.04320987654320988,0,0)" xlink:href="#az" id="p"/><path fill="#666" d="M185-189c-5-48-123-54-124 2 14 75 158 14 163 119 3 78-121 87-175 55-17-10-28-26-33-46l33-7c5 56 141 63 141-1 0-78-155-14-162-118-5-82 145-84 179-34 5 7 8 16 11 25" id="aA"/><use transform="matrix(0.04320987654320988,0,0,0.04320987654320988,0,0)" xlink:href="#aA" id="q"/><path fill="#666" d="M205 0l-28-72H64L36 0H1l101-248h38L239 0h-34zm-38-99l-47-123c-12 45-31 82-46 123h93" id="aB"/><use transform="matrix(0.04320987654320988,0,0,0.04320987654320988,0,0)" xlink:href="#aB" id="r"/><path fill="#666" d="M240 0l2-218c-23 76-54 145-80 218h-23L58-218 59 0H30v-248h44l77 211c21-75 51-140 76-211h43V0h-30" id="aC"/><use transform="matrix(0.04320987654320988,0,0,0.04320987654320988,0,0)" xlink:href="#aC" id="s"/><path fill="#666" d="M153-248C145-148 188 4 80 4 36 3 13-21 6-62l32-5c4 25 16 42 43 43 27 0 39-20 39-49v-147H72v-28h81" id="aD"/><use transform="matrix(0.04320987654320988,0,0,0.04320987654320988,0,0)" xlink:href="#aD" id="t"/><path fill="#666" d="M30 0v-248h187v28H63v79h144v27H63v87h162V0H30" id="aE"/><use transform="matrix(0.04320987654320988,0,0,0.04320987654320988,0,0)" xlink:href="#aE" id="u"/><path fill="#666" d="M140-251c81 0 123 46 123 126C263-46 219 4 140 4 59 4 17-45 17-125s42-126 123-126zm0 227c63 0 89-41 89-101s-29-99-89-99c-61 0-89 39-89 99S79-25 140-24" id="aF"/><use transform="matrix(0.04320987654320988,0,0,0.04320987654320988,0,0)" xlink:href="#aF" id="v"/><path fill="#666" d="M232-93c-1 65-40 97-104 97C67 4 28-28 28-90v-158h33c8 89-33 224 67 224 102 0 64-133 71-224h33v155" id="aG"/><use transform="matrix(0.04320987654320988,0,0,0.04320987654320988,0,0)" xlink:href="#aG" id="w"/><g id="x"><use transform="matrix(0.01953125,0,0,0.01953125,0,0)" xlink:href="#as"/><use transform="matrix(0.01953125,0,0,0.01953125,18.76953125,0)" xlink:href="#at"/></g><path fill="#666" d="M127-220V0H93v-220H8v-28h204v28h-85" id="aH"/><use transform="matrix(0.04320987654320988,0,0,0.04320987654320988,0,0)" xlink:href="#aH" id="y"/><g id="z"><use transform="matrix(0.01953125,0,0,0.01953125,0,0)" xlink:href="#as"/><use transform="matrix(0.01953125,0,0,0.01953125,18.76953125,0)" xlink:href="#ar"/></g><g id="A"><use transform="matrix(0.01953125,0,0,0.01953125,0,0)" xlink:href="#as"/><use transform="matrix(0.01953125,0,0,0.01953125,18.76953125,0)" xlink:href="#au"/></g><g id="B"><use transform="matrix(0.01953125,0,0,0.01953125,0,0)" xlink:href="#as"/><use transform="matrix(0.01953125,0,0,0.01953125,18.76953125,0)" xlink:href="#av"/></g><g id="C"><use transform="matrix(0.01953125,0,0,0.01953125,0,0)" xlink:href="#as"/><use transform="matrix(0.01953125,0,0,0.01953125,18.76953125,0)" xlink:href="#aw"/></g><g id="D"><use transform="matrix(0.01953125,0,0,0.01953125,0,0)" xlink:href="#at"/><use transform="matrix(0.01953125,0,0,0.01953125,18.76953125,0)" xlink:href="#ao"/></g><g id="E"><use transform="matrix(0.01953125,0,0,0.01953125,0,0)" xlink:href="#at"/><use transform="matrix(0.01953125,0,0,0.01953125,18.76953125,0)" xlink:href="#as"/></g><path fill="#666" d="M143 4C61 4 22-44 18-125c-5-107 100-154 193-111 17 8 29 25 37 43l-32 9c-13-25-37-40-76-40-61 0-88 39-88 99 0 61 29 100 91 101 35 0 62-11 79-27v-45h-74v-28h105v86C228-13 192 4 143 4" id="aI"/><use transform="matrix(0.04320987654320988,0,0,0.04320987654320988,0,0)" xlink:href="#aI" id="F"/><path fill="#666" d="M190 0L58-211 59 0H30v-248h39L202-35l-2-213h31V0h-41" id="aJ"/><use transform="matrix(0.04320987654320988,0,0,0.04320987654320988,0,0)" xlink:href="#aJ" id="G"/><g id="H"><use transform="matrix(0.01953125,0,0,0.01953125,0,0)" xlink:href="#at"/><use transform="matrix(0.01953125,0,0,0.01953125,18.76953125,0)" xlink:href="#at"/></g><g id="I"><use transform="matrix(0.01953125,0,0,0.01953125,0,0)" xlink:href="#at"/><use transform="matrix(0.01953125,0,0,0.01953125,18.76953125,0)" xlink:href="#ap"/></g><path fill="#666" d="M126-127c33 6 58 20 58 59 0 88-139 92-164 29-3-8-5-16-6-25l32-3c6 27 21 44 54 44 32 0 52-15 52-46 0-38-36-46-79-43v-28c39 1 72-4 72-42 0-27-17-43-46-43-28 0-47 15-49 41l-32-3c6-42 35-63 81-64 48-1 79 21 79 65 0 36-21 52-52 59" id="aK"/><path fill="#666" d="M27 0v-27h64v-190l-56 39v-29l58-41h29v221h61V0H27" id="aL"/><g id="J"><use transform="matrix(0.04320987654320988,0,0,0.04320987654320988,0,0)" xlink:href="#aK"/><use transform="matrix(0.04320987654320988,0,0,0.04320987654320988,8.641975308641976,0)" xlink:href="#aL"/></g><g id="K"><use transform="matrix(0.01953125,0,0,0.01953125,0,0)" xlink:href="#as"/><use transform="matrix(0.01953125,0,0,0.01953125,18.76953125,0)" xlink:href="#ax"/></g><g id="L"><use transform="matrix(0.01953125,0,0,0.01953125,0,0)" xlink:href="#at"/><use transform="matrix(0.01953125,0,0,0.01953125,18.76953125,0)" xlink:href="#av"/></g><path fill="#222" d="M45 52h118l17-89h30L187 82H9L33-37h29" id="aM"/><use transform="matrix(0.05185185185185186,0,0,0.05185185185185186,0,0)" xlink:href="#aM" id="M"/><g id="N"><use transform="matrix(0.01953125,0,0,0.01953125,0,0)" xlink:href="#at"/><use transform="matrix(0.01953125,0,0,0.01953125,18.76953125,0)" xlink:href="#ar"/></g><g id="O"><use transform="matrix(0.01953125,0,0,0.01953125,0,0)" xlink:href="#at"/><use transform="matrix(0.01953125,0,0,0.01953125,18.76953125,0)" xlink:href="#au"/></g><g id="P"><use transform="matrix(0.01953125,0,0,0.01953125,0,0)" xlink:href="#ap"/><use transform="matrix(0.01953125,0,0,0.01953125,18.76953125,0)" xlink:href="#as"/></g><g id="Q"><use transform="matrix(0.01953125,0,0,0.01953125,0,0)" xlink:href="#ap"/><use transform="matrix(0.01953125,0,0,0.01953125,18.76953125,0)" xlink:href="#at"/></g><g id="R"><use transform="matrix(0.01953125,0,0,0.01953125,0,0)" xlink:href="#ap"/><use transform="matrix(0.01953125,0,0,0.01953125,18.76953125,0)" xlink:href="#aq"/></g><use transform="matrix(0.01953125,0,0,0.01953125,0,0)" xlink:href="#ar" id="S"/><use transform="matrix(0.01953125,0,0,0.01953125,0,0)" xlink:href="#au" id="T"/><use transform="matrix(0.01953125,0,0,0.01953125,0,0)" xlink:href="#as" id="U"/><use transform="matrix(0.01953125,0,0,0.01953125,0,0)" xlink:href="#at" id="V"/><path fill="#666" d="M160-131c35 5 61 23 61 61C221 17 115-2 30 0v-248c76 3 177-17 177 60 0 33-19 50-47 57zm-97-11c50-1 110 9 110-42 0-47-63-36-110-37v79zm0 115c55-2 124 14 124-45 0-56-70-42-124-44v89" id="aN"/><use transform="matrix(0.04320987654320988,0,0,0.04320987654320988,0,0)" xlink:href="#aN" id="W"/><g id="X"><use transform="matrix(0.01953125,0,0,0.01953125,0,0)" xlink:href="#at"/><use transform="matrix(0.01953125,0,0,0.01953125,18.76953125,0)" xlink:href="#aw"/></g><g id="Y"><use transform="matrix(0.01953125,0,0,0.01953125,0,0)" xlink:href="#at"/><use transform="matrix(0.01953125,0,0,0.01953125,18.76953125,0)" xlink:href="#ax"/></g><g id="Z"><use transform="matrix(0.01953125,0,0,0.01953125,0,0)" xlink:href="#aq"/><use transform="matrix(0.01953125,0,0,0.01953125,18.76953125,0)" xlink:href="#ao"/></g><path fill="#666" d="M72 4L0-261h28L100 4H72" id="aO"/><path fill="#666" d="M117-194c89-4 53 116 60 194h-32v-121c0-31-8-49-39-48C34-167 62-67 57 0H25l-1-190h30c1 10-1 24 2 32 11-22 29-35 61-36" id="aP"/><g id="aa"><use transform="matrix(0.04320987654320988,0,0,0.04320987654320988,0,0)" xlink:href="#aO"/><use transform="matrix(0.04320987654320988,0,0,0.04320987654320988,4.320987654320988,0)" xlink:href="#aP"/></g><path fill="#666" d="M101-251c68 0 85 55 85 127S166 4 100 4C33 4 14-52 14-124c0-73 17-127 87-127zm-1 229c47 0 54-49 54-102s-4-102-53-102c-51 0-55 48-55 102 0 53 5 102 54 102" id="aQ"/><use transform="matrix(0.04320987654320988,0,0,0.04320987654320988,0,0)" xlink:href="#aQ" id="ab"/><path fill="#666" d="M33 0v-38h34V0H33" id="aR"/><path fill="#666" d="M99-251c64 0 84 50 84 122C183-37 130 33 47-8c-14-7-20-23-25-40l30-5c6 39 69 39 84 7 9-19 16-44 16-74-10 22-31 35-62 35-49 0-73-33-73-83 0-54 28-83 82-83zm-1 141c31-1 51-18 51-49 0-36-14-67-51-67-34 0-49 23-49 58 0 34 15 58 49 58" id="aS"/><g id="ac"><use transform="matrix(0.04320987654320988,0,0,0.04320987654320988,0,0)" xlink:href="#aL"/><use transform="matrix(0.04320987654320988,0,0,0.04320987654320988,8.641975308641976,0)" xlink:href="#aR"/><use transform="matrix(0.04320987654320988,0,0,0.04320987654320988,12.962962962962964,0)" xlink:href="#aR"/><use transform="matrix(0.04320987654320988,0,0,0.04320987654320988,17.283950617283953,0)" xlink:href="#aR"/><use transform="matrix(0.04320987654320988,0,0,0.04320987654320988,21.60493827160494,0)" xlink:href="#aS"/></g><path fill="#666" d="M137-138c1-29-70-34-71-4 15 46 118 7 119 86 1 83-164 76-172 9l43-7c4 19 20 25 44 25 33 8 57-30 24-41C81-84 22-81 20-136c-2-80 154-74 161-7" id="aT"/><path fill="#666" d="M115-3C79 11 28 4 28-45v-112H4v-33h27l15-45h31v45h36v33H77v99c-1 23 16 31 38 25v30" id="aU"/><path fill="#666" d="M133-34C117-15 103 5 69 4 32 3 11-16 11-54c-1-60 55-63 116-61 1-26-3-47-28-47-18 1-26 9-28 27l-52-2c7-38 36-58 82-57s74 22 75 68l1 82c-1 14 12 18 25 15v27c-30 8-71 5-69-32zm-48 3c29 0 43-24 42-57-32 0-66-3-65 30 0 17 8 27 23 27" id="aV"/><path fill="#666" d="M185-48c-13 30-37 53-82 52C43 2 14-33 14-96s30-98 90-98c62 0 83 45 84 108H66c0 31 8 55 39 56 18 0 30-7 34-22zm-45-69c5-46-57-63-70-21-2 6-4 13-4 21h74" id="aW"/><g id="ad"><use transform="matrix(0.04320987654320988,0,0,0.04320987654320988,0,0)" xlink:href="#aT"/><use transform="matrix(0.04320987654320988,0,0,0.04320987654320988,8.641975308641976,0)" xlink:href="#aU"/><use transform="matrix(0.04320987654320988,0,0,0.04320987654320988,13.783950617283953,0)" xlink:href="#aV"/><use transform="matrix(0.04320987654320988,0,0,0.04320987654320988,22.425925925925934,0)" xlink:href="#aU"/><use transform="matrix(0.04320987654320988,0,0,0.04320987654320988,27.567901234567906,0)" xlink:href="#aW"/></g><path fill="#666" d="M165-50V0h-47v-50H5v-38l105-160h55v161h33v37h-33zm-47-37l2-116L46-87h72" id="aX"/><path fill="#666" d="M23 0v-37h61v-169l-59 37v-38l62-41h46v211h57V0H23" id="aY"/><g id="ae"><use transform="matrix(0.04320987654320988,0,0,0.04320987654320988,0,0)" xlink:href="#aX"/><use transform="matrix(0.04320987654320988,0,0,0.04320987654320988,8.641975308641976,0)" xlink:href="#aY"/></g><path fill="#666" d="M25-224v-37h50v37H25zM25 0v-190h50V0H25" id="aZ"/><g id="af"><use transform="matrix(0.04320987654320988,0,0,0.04320987654320988,0,0)" xlink:href="#aZ"/><use transform="matrix(0.04320987654320988,0,0,0.04320987654320988,4.320987654320988,0)" xlink:href="#aT"/></g><path fill="#666" d="M220-157c-53 9-28 100-34 157h-49v-107c1-27-5-49-29-50C55-147 81-57 75 0H25l-1-190h47c2 12-1 28 3 38 10-53 101-56 108 0 13-22 24-43 59-42 82 1 51 116 57 194h-49v-107c-1-25-5-48-29-50" id="ba"/><path fill="#666" d="M135-194c87-1 58 113 63 194h-50c-7-57 23-157-34-157-59 0-34 97-39 157H25l-1-190h47c2 12-1 28 3 38 12-26 28-41 61-42" id="bb"/><path fill="#666" d="M195-6C206 82 75 100 31 46c-4-6-6-13-8-21l49-6c3 16 16 24 34 25 40 0 42-37 40-79-11 22-30 35-61 35-53 0-70-43-70-97 0-56 18-96 73-97 30 0 46 14 59 34l2-30h47zm-90-29c32 0 41-27 41-63 0-35-9-62-40-62-32 0-39 29-40 63 0 36 9 62 39 62" id="bc"/><g id="ag"><use transform="matrix(0.04320987654320988,0,0,0.04320987654320988,0,0)" xlink:href="#ba"/><use transform="matrix(0.04320987654320988,0,0,0.04320987654320988,13.827160493827162,0)" xlink:href="#aZ"/><use transform="matrix(0.04320987654320988,0,0,0.04320987654320988,18.14814814814815,0)" xlink:href="#aT"/><use transform="matrix(0.04320987654320988,0,0,0.04320987654320988,26.790123456790127,0)" xlink:href="#aT"/><use transform="matrix(0.04320987654320988,0,0,0.04320987654320988,35.4320987654321,0)" xlink:href="#aZ"/><use transform="matrix(0.04320987654320988,0,0,0.04320987654320988,39.75308641975309,0)" xlink:href="#bb"/><use transform="matrix(0.04320987654320988,0,0,0.04320987654320988,49.21604938271606,0)" xlink:href="#bc"/></g><path fill="#666" d="M67-93c0 74 22 123 53 168H70C40 30 18-18 18-93s22-123 52-168h50c-32 44-53 94-53 168" id="bd"/><path fill="#666" d="M121-226c-27-7-43 5-38 36h38v33H83V0H34v-157H6v-33h28c-9-59 32-81 87-68v32" id="be"/><path fill="#666" d="M25 0v-261h50V0H25" id="bf"/><g id="ah"><use transform="matrix(0.04320987654320988,0,0,0.04320987654320988,0,0)" xlink:href="#bd"/><use transform="matrix(0.04320987654320988,0,0,0.04320987654320988,5.1419753086419755,0)" xlink:href="#be"/><use transform="matrix(0.04320987654320988,0,0,0.04320987654320988,10.283950617283951,0)" xlink:href="#aV"/><use transform="matrix(0.04320987654320988,0,0,0.04320987654320988,18.925925925925927,0)" xlink:href="#aZ"/><use transform="matrix(0.04320987654320988,0,0,0.04320987654320988,23.246913580246915,0)" xlink:href="#bf"/><use transform="matrix(0.04320987654320988,0,0,0.04320987654320988,27.567901234567906,0)" xlink:href="#aZ"/><use transform="matrix(0.04320987654320988,0,0,0.04320987654320988,31.888888888888886,0)" xlink:href="#bb"/><use transform="matrix(0.04320987654320988,0,0,0.04320987654320988,41.351851851851855,0)" xlink:href="#bc"/></g><path fill="#666" d="M102-93c0 74-22 123-52 168H0C30 29 54-18 53-93c0-74-22-123-53-168h50c30 45 52 94 52 168" id="bg"/><g id="ai"><use transform="matrix(0.04320987654320988,0,0,0.04320987654320988,0,0)" xlink:href="#aT"/><use transform="matrix(0.04320987654320988,0,0,0.04320987654320988,8.641975308641976,0)" xlink:href="#aU"/><use transform="matrix(0.04320987654320988,0,0,0.04320987654320988,13.783950617283953,0)" xlink:href="#aV"/><use transform="matrix(0.04320987654320988,0,0,0.04320987654320988,22.425925925925934,0)" xlink:href="#aU"/><use transform="matrix(0.04320987654320988,0,0,0.04320987654320988,27.567901234567906,0)" xlink:href="#aW"/><use transform="matrix(0.04320987654320988,0,0,0.04320987654320988,36.20987654320988,0)" xlink:href="#bg"/></g><use transform="matrix(0.01953125,0,0,0.01953125,0,0)" xlink:href="#av" id="aj"/><use transform="matrix(0.01953125,0,0,0.01953125,0,0)" xlink:href="#aw" id="ak"/><use transform="matrix(0.01953125,0,0,0.01953125,0,0)" xlink:href="#ax" id="al"/><g id="am"><use transform="matrix(0.01953125,0,0,0.01953125,0,0)" xlink:href="#ap"/><use transform="matrix(0.01953125,0,0,0.01953125,18.76953125,0)" xlink:href="#ao"/></g><path fill="#666" d="M233-177c-1 41-23 64-60 70L243 0h-38l-65-103H63V0H30v-248c88 3 205-21 203 71zM63-129c60-2 137 13 137-47 0-61-80-42-137-45v92" id="bh"/><use transform="matrix(0.04320987654320988,0,0,0.04320987654320988,0,0)" xlink:href="#bh" id="an"/></defs></g></svg>